<svg id="Layer_1" data-name="Layer 1" xmlns="http://www.w3.org/2000/svg" xmlns:xlink="http://www.w3.org/1999/xlink" viewBox="0 0 196.09 171.43"><defs><style>.cls-1{fill:none;}.cls-2{fill:#523713;}.cls-3{fill:url(#linear-gradient);}.cls-4{fill:url(#linear-gradient-2);}.cls-5{fill:url(#linear-gradient-3);}.cls-6{fill:#716f73;}.cls-7{fill:#edeeef;}.cls-14,.cls-8{fill:#3a3234;}.cls-9{fill:#838687;}.cls-10{fill:#21a2dc;}.cls-11{fill:#f9a51b;}.cls-12{fill:#80c242;}.cls-13{fill:#dbdcdd;}.cls-14{opacity:0.25;}.cls-15{fill:#f4f5f5;}.cls-16{fill:#fcd4c4;}.cls-17{fill:#e4e4e2;}.cls-18{fill:url(#linear-gradient-4);}.cls-19{fill:#4379ac;}.cls-20{opacity:0.45;}.cls-21{clip-path:url(#clip-path);}.cls-22{fill:url(#linear-gradient-5);}.cls-23{fill:#fff;}.cls-24{fill:#395e90;}.cls-25{fill:url(#linear-gradient-6);}.cls-26{fill:#f5b19c;}.cls-27{fill:url(#radial-gradient);}.cls-28{fill:url(#radial-gradient-2);}.cls-29{fill:#322a2c;}.cls-30{fill:#fde4d4;}.cls-31{fill:#423a3c;}.cls-32{fill:#cc2f28;}</style><linearGradient id="linear-gradient" x1="53.61" y1="160.1" x2="53.61" y2="94.12" gradientUnits="userSpaceOnUse"><stop offset="0" stop-color="#78787b"/><stop offset="0.25" stop-color="#747477"/><stop offset="0.53" stop-color="#67676a"/><stop offset="0.81" stop-color="#535354"/><stop offset="1" stop-color="#414141"/></linearGradient><linearGradient id="linear-gradient-2" x1="37.18" y1="160.1" x2="37.18" y2="93.03" gradientTransform="translate(113.21 18.77) rotate(51.57)" xlink:href="#linear-gradient"/><linearGradient id="linear-gradient-3" x1="70.26" y1="160.1" x2="70.26" y2="93.03" gradientTransform="translate(93.86 -16.26) rotate(38.42)" xlink:href="#linear-gradient"/><linearGradient id="linear-gradient-4" x1="152.27" y1="114.01" x2="145.26" y2="118.82" gradientUnits="userSpaceOnUse"><stop offset="0" stop-color="#edeceb" stop-opacity="0"/><stop offset="1" stop-color="#b5b5b5"/></linearGradient><clipPath id="clip-path"><path class="cls-1" d="M146.93,122.71l-2.14-35.25-12.25.92-12.25-.92-2.14,35.25s-0.42,2.53,3.24,2.74h22.29C147.35,125.24,146.93,122.71,146.93,122.71Z"/></clipPath><linearGradient id="linear-gradient-5" x1="130.44" y1="171.43" x2="130.44" y2="40.14" gradientUnits="userSpaceOnUse"><stop offset="0" stop-color="#fff" stop-opacity="0.65"/><stop offset="0.14" stop-color="#fff" stop-opacity="0.51"/><stop offset="0.34" stop-color="#fff" stop-opacity="0.33"/><stop offset="0.53" stop-color="#fff" stop-opacity="0.19"/><stop offset="0.71" stop-color="#fff" stop-opacity="0.08"/><stop offset="0.87" stop-color="#fff" stop-opacity="0.02"/><stop offset="1" stop-color="#fff" stop-opacity="0"/></linearGradient><linearGradient id="linear-gradient-6" x1="100" y1="102.36" x2="85.67" y2="94.86" xlink:href="#linear-gradient-4"/><radialGradient id="radial-gradient" cx="242.03" cy="163.19" r="7.17" gradientTransform="translate(0.18 -39.61) scale(0.63)" gradientUnits="userSpaceOnUse"><stop offset="0" stop-color="#f8b5a8"/><stop offset="0.09" stop-color="#f8b6a9" stop-opacity="0.97"/><stop offset="0.22" stop-color="#f8b8ac" stop-opacity="0.9"/><stop offset="0.37" stop-color="#f9bcb0" stop-opacity="0.77"/><stop offset="0.54" stop-color="#f9c1b6" stop-opacity="0.6"/><stop offset="0.73" stop-color="#fac8be" stop-opacity="0.38"/><stop offset="0.92" stop-color="#fbd0c7" stop-opacity="0.12"/><stop offset="1" stop-color="#fbd4cb" stop-opacity="0"/></radialGradient><radialGradient id="radial-gradient-2" cx="-22.65" cy="161.19" r="7.17" gradientTransform="matrix(-0.63, 0, 0, 0.63, 91.39, -39.61)" xlink:href="#radial-gradient"/></defs><title>mascot-01</title><path class="cls-2" d="M71.59,112a33.08,33.08,0,0,1-1.72-4.88l5.94-7.41Z"/><path class="cls-2" d="M80.32,123.12a29.71,29.71,0,0,1-3.64-3.34l4.22-10.33Z"/><rect class="cls-3" x="52.23" y="94.12" width="2.76" height="65.98"/><rect class="cls-4" x="-4.54" y="125.18" width="83.44" height="2.76" transform="translate(-85.08 77.02) rotate(-51.57)"/><rect class="cls-5" x="68.88" y="84.85" width="2.76" height="83.44" transform="translate(-63.44 71.07) rotate(-38.42)"/><polygon class="cls-6" points="100.92 128.35 53.72 128.35 53.32 128.35 6.11 128.35 0 128.35 0 122.23 0 50.6 0 44.48 6.11 44.48 53.32 44.48 53.72 44.48 100.92 44.48 107.03 44.48 107.03 50.6 107.03 122.23 107.03 128.35 100.92 128.35"/><path class="cls-7" d="M96.74,48.18H10.29a5.58,5.58,0,0,0-5.57,5.57v65.32a5.58,5.58,0,0,0,5.57,5.57H96.74a5.58,5.58,0,0,0,5.57-5.57V53.76A5.58,5.58,0,0,0,96.74,48.18Z"/><rect class="cls-8" x="6.22" y="157.37" width="10.27" height="3.93"/><rect class="cls-8" x="48.47" y="157.37" width="10.27" height="3.93"/><rect class="cls-8" x="90.18" y="157.36" width="10.27" height="3.93"/><rect class="cls-9" x="13.58" y="114.96" width="28.7" height="2.12"/><rect class="cls-10" x="13.58" y="96.26" width="8.46" height="16.58"/><rect class="cls-11" x="23.63" y="81.76" width="8.46" height="31.08"/><rect class="cls-12" x="33.81" y="87.98" width="8.47" height="24.86"/><rect class="cls-9" x="50.34" y="79.64" width="2.12" height="37.43"/><rect class="cls-13" x="58.46" y="79.64" width="0.81" height="36.37"/><rect class="cls-13" x="65.34" y="79.64" width="0.81" height="36.37"/><rect class="cls-13" x="72.21" y="79.64" width="0.81" height="36.37"/><rect class="cls-13" x="79.09" y="79.64" width="0.81" height="36.37"/><rect class="cls-13" x="85.97" y="79.64" width="0.81" height="36.37"/><rect class="cls-13" x="92.85" y="79.64" width="0.81" height="36.37"/><rect class="cls-9" x="50.34" y="114.96" width="45.1" height="2.12"/><rect class="cls-13" x="52.46" y="82.31" width="41.2" height="0.81"/><rect class="cls-13" x="52.46" y="89.18" width="41.2" height="0.81"/><rect class="cls-13" x="52.46" y="96.06" width="41.2" height="0.81"/><rect class="cls-13" x="52.46" y="102.94" width="41.2" height="0.81"/><rect class="cls-13" x="52.46" y="109.81" width="41.2" height="0.81"/><polygon class="cls-10" points="93.94 83.4 92.56 82.02 74.04 109.38 66.73 102.1 66.73 102.09 65.36 100.72 65.35 100.72 65.34 100.72 63.97 102.09 63.97 102.1 53.26 112.83 54.63 114.21 65.35 103.47 74.1 112.18 74.11 112.17 93.94 83.4"/><polygon class="cls-10" points="94.16 86.08 89.75 83.12 95 80.13 94.16 86.08"/><path class="cls-9" d="M17.45,62.16a4.9,4.9,0,0,0,2.3.55c0.71,0,1.38-.14,1.38-0.82,0-1.56-4-.58-4-3.62,0-2,2-2.57,3.65-2.57A7.08,7.08,0,0,1,23,56l-0.14,1.73A4.49,4.49,0,0,0,21,57.36c-0.56,0-1.5,0-1.5.78,0,1.35,4,.44,4,3.47,0,2.17-1.82,2.76-3.68,2.76A8.78,8.78,0,0,1,17.26,64Z"/><path class="cls-9" d="M27.09,57.5H25V55.85h6.36V57.5H29.33v6.72H27.09V57.5Z"/><path class="cls-9" d="M34.83,55.85h2.73l3.23,8.37H38.35l-0.62-1.79H34.58l-0.66,1.79H31.66Zm1.37,1.73h0L35.1,60.85h2.1Z"/><path class="cls-9" d="M43.2,57.5H41.14V55.85h6.36V57.5H45.43v6.72H43.2V57.5Z"/><path class="cls-9" d="M49.44,55.85h2.23v8.37H49.44V55.85Z"/><path class="cls-9" d="M54.26,62.16a4.9,4.9,0,0,0,2.3.55c0.71,0,1.38-.14,1.38-0.82,0-1.56-4-.58-4-3.62,0-2,2-2.57,3.65-2.57a7.08,7.08,0,0,1,2.16.31l-0.14,1.73a4.49,4.49,0,0,0-1.86-.38c-0.56,0-1.5,0-1.5.78,0,1.35,4,.44,4,3.47,0,2.17-1.82,2.76-3.68,2.76A8.78,8.78,0,0,1,54.07,64Z"/><path class="cls-9" d="M63.91,57.5H61.85V55.85H68.2V57.5H66.14v6.72H63.91V57.5Z"/><path class="cls-9" d="M70.15,55.85h2.23v8.37H70.15V55.85Z"/><path class="cls-9" d="M81.93,64a9.28,9.28,0,0,1-2.48.34c-2.23,0-4.81-1.13-4.81-4.29,0-2.91,2-4.37,4.8-4.37a8.7,8.7,0,0,1,2.48.43l-0.18,1.81a4.39,4.39,0,0,0-2.18-.59,2.68,2.68,0,1,0,.18,5.35,5.89,5.89,0,0,0,2.09-.43Z"/><path class="cls-9" d="M83.88,62.16a4.9,4.9,0,0,0,2.3.55c0.71,0,1.38-.14,1.38-0.82,0-1.56-4-.58-4-3.62,0-2,2-2.57,3.65-2.57a7.08,7.08,0,0,1,2.16.31l-0.14,1.73a4.49,4.49,0,0,0-1.86-.38c-0.56,0-1.5,0-1.5.78,0,1.35,4,.44,4,3.47,0,2.17-1.82,2.76-3.68,2.76A8.78,8.78,0,0,1,83.69,64Z"/><path class="cls-14" d="M107,107.37s-13.62,2.69-22.7-4.12l-0.5.34-5-2.23,0.3-1.17a2.45,2.45,0,0,1-2.09,0,2.5,2.5,0,0,1-3.4,1.08c-2.43-1,.41-3.71.41-3.71l1.21-2.1L73.6,97.2S70,98.2,70,95.47,74.21,93,74.21,93s-4.32-.45-3.95-2.74,6.32,0,6.32,0l3.67-.7s-0.17-1.3.71-1.51,4,3.5,4,3.5l4.79,6.25L107,100.49v6.88Z"/><path class="cls-14" d="M107,89.18S94.66,88.09,93.7,70.37c0,0-6.89-1.09-7.62-10.3a3.7,3.7,0,0,1-2.24-2.56c-0.37-1.89,7-3.75,12-4S107,61,107,61V89.18Z"/><path class="cls-15" d="M93.39,68a5.58,5.58,0,0,1-2.81-1.5h2.67Z"/><path class="cls-16" d="M85.13,91.71s0.52-6.39-2-6.36-1.54,3.81-1.54,3.81-7-5.92-8.89-3.73,3.71,3.72,3.71,3.72S71,87.83,71,91s4.8,2.21,4.8,2.21-4.45,2.32-2.63,4.28,5.06-.78,5.06-0.78a3,3,0,0,0,2.46.68Z"/><path class="cls-17" d="M121.44,97.07s-6,7.59-18.8,7.53S83.83,99,83.83,99l4.25-5a31.27,31.27,0,0,0,14.55,4.17c7.78,0,18.8-9.2,18.8-9.2v8.06Z"/><path class="cls-8" d="M128.12,131.2h0l1.4,30.1H110.92s6.93-4.72,12.52-6.43l-2.05-30h22.83l-2.05,30c5.6,1.71,12.52,6.43,12.52,6.43H136.12l1.4-30.1h-9.41Z"/><path class="cls-17" d="M144.37,95.89s5.06-.18,6.85,6.82c2,8-5.15,11.69-5.15,11.69v8.31s14.89-5.31,11.27-21C154,87.4,142.91,87.42,142.91,87.42Z"/><path class="cls-18" d="M154.22,116.82a20.84,20.84,0,0,1-8.15,5.9V114.4a11.66,11.66,0,0,0,4.18-4.05Z"/><path class="cls-19" d="M146.93,122.71l-2.14-35.25-12.25.92-12.25-.92-2.14,35.25s-0.42,2.53,3.24,2.74h22.29C147.35,125.24,146.93,122.71,146.93,122.71Z"/><g class="cls-20"><g class="cls-21"><path class="cls-22" d="M131.16,105.79l0.79-.79,0.79,0.79-0.79.79Zm-0.72-.72-0.79-.79,0.79-.79,0.79,0.79Zm-0.72.72-0.79.79-0.79-.79,0.79-.79Zm0.72,0.72,0.79,0.79-0.79.79-0.79-.79ZM131.9,108l0.84,0.84-0.79.79-0.84-.84Zm0.72-.72,0.79-.79,0.84,0.84-0.79.79Zm1.46-1.46,0.84-.84,0.84,0.84-0.84.84Zm-0.67-.67-0.79-.79,0.84-.84,0.79,0.79Zm-1.51-1.51-0.79-.79,0.84-.84,0.79,0.79Zm-1.46-1.46-0.84-.84,0.84-.84,0.84,0.84Zm-0.67.67-0.79.79-0.84-.84,0.79-.79Zm-1.51,1.51-0.79.79-0.84-.84,0.79-.79Zm-1.46,1.46-0.84.84-0.84-.84L126,105Zm0.67,0.67,0.79,0.79-0.84.84-0.79-.79ZM129,108l0.79,0.79-0.84.84-0.79-.79Zm1.46,1.46,0.84,0.84-0.84.84-0.84-.84Zm1.51,1.51,0.84,0.84-0.84.84-0.84-.84Zm0.67-.67,0.79-.79,0.84,0.84-0.79.79Zm1.51-1.51,0.79-.79,0.84,0.84-0.79.79Zm1.46-1.46,0.84-.84,0.84,0.84-0.84.84Zm1.51-1.51,0.84-.84,0.84,0.84-0.84.84Zm-0.67-.67-0.84-.84,0.84-.84,0.84,0.84Zm-1.51-1.51-0.79-.79L135,102l0.79,0.79Zm-1.51-1.51-0.79-.79,0.84-.84,0.79,0.79Zm-1.46-1.46-0.84-.84L132,99l0.84,0.84Zm-1.51-1.51-0.84-.84,0.84-.84,0.84,0.84Zm-0.67.67-0.84.84-0.84-.84,0.84-.84Zm-1.51,1.51-0.79.79-0.84-.84,0.79-.79Zm-1.51,1.51-0.79.79-0.84-.84,0.79-.79Zm-1.46,1.46-0.84.84-0.84-.84,0.84-.84Zm-1.51,1.51-0.84.84-0.84-.84L123,105Zm0.67,0.67,0.84,0.84-0.84.84-0.84-.84ZM126,108l0.79,0.79-0.84.84-0.79-.79Zm1.51,1.51,0.79,0.79-0.84.84-0.79-.79Zm1.46,1.46,0.84,0.84-0.84.84-0.84-.84Zm1.51,1.51,0.84,0.84-0.84.84-0.84-.84Zm1.51,1.51,0.84,0.84-0.84.84-0.84-.84Zm0.67-.67,0.84-.84,0.84,0.84-0.84.84Zm1.51-1.51,0.79-.79,0.84,0.84-0.79.79Zm1.51-1.51,0.79-.79,0.84,0.84-0.79.79Zm1.46-1.46,0.84-.84,0.84,0.84-0.84.84Zm1.51-1.51,0.84-.84,0.84,0.84-0.84.84Zm1.51-1.51,0.84-.84,0.84,0.84-0.84.84Zm-0.67-.67-0.84-.84,0.84-.84,0.84,0.84Zm-1.51-1.51-0.84-.84,0.84-.84,0.84,0.84Zm-1.51-1.51-0.79-.79,0.84-.84,0.79,0.79Zm-1.51-1.51-0.79-.79L135,99l0.79,0.79Zm-1.46-1.46-0.84-.84,0.84-.84,0.84,0.84Zm-1.51-1.51-0.84-.84,0.84-.84,0.84,0.84Zm-1.51-1.51-0.84-.84,0.84-.84,0.84,0.84Zm-0.67.67-0.84.84-0.84-.84,0.84-.84Zm-1.51,1.51-0.84.84-0.84-.84,0.84-.84Zm-1.51,1.51-0.79.79-0.84-.84,0.79-.79Zm-1.51,1.51-0.79.79-0.84-.84,0.79-.79Zm-1.46,1.46-0.84.84-0.84-.84,0.84-.84Zm-1.51,1.51-0.84.84-0.84-.84,0.84-.84Zm-1.51,1.51-0.84.84-0.84-.84,0.84-.84Zm0.67,0.67,0.84,0.84-0.84.84-0.84-.84ZM123,108l0.84,0.84-0.84.84-0.84-.84Zm1.51,1.51,0.79,0.79-0.84.84-0.79-.79ZM126,111l0.79,0.79-0.84.84-0.79-.79Zm1.46,1.46,0.84,0.84-0.84.84-0.84-.84Zm1.51,1.51,0.84,0.84-0.84.84-0.84-.84Zm1.51,1.51,0.84,0.84-0.84.84-0.84-.84Zm1.51,1.51,0.84,0.84-0.84.84-0.84-.84Zm0.67-.67,0.84-.84,0.84,0.84-0.84.84Zm1.51-1.51,0.84-.84,0.84,0.84-0.84.84Zm1.51-1.51,0.79-.79,0.84,0.84-0.79.79Zm1.51-1.51,0.79-.79,0.84,0.84-0.79.79Zm1.46-1.46,0.84-.84,0.84,0.84-0.84.84Zm1.51-1.51,0.84-.84,0.84,0.84-0.84.84Zm1.51-1.51,0.84-.84,0.84,0.84-0.84.84Zm1.51-1.51L144,105l0.84,0.84-0.84.84Zm-0.67-.67-0.84-.84,0.84-.84,0.84,0.84Zm-1.51-1.51-0.84-.84,0.84-.84,0.84,0.84Zm-1.51-1.51-0.84-.84,0.84-.84,0.84,0.84Zm-1.51-1.51-0.79-.79L138,99l0.79,0.79Zm-1.51-1.51-0.79-.79,0.84-.84,0.79,0.79ZM135,97.63l-0.84-.84L135,96l0.84,0.84Zm-1.51-1.51-0.84-.84,0.84-.84,0.84,0.84Zm-1.51-1.51-0.84-.84,0.84-.84,0.84,0.84Zm-1.51-1.51-0.84-.84,0.84-.84,0.84,0.84Zm-0.67.67-0.84.84-0.84-.84,0.84-.84Zm-1.51,1.51-0.84.84-0.84-.84,0.84-.84Zm-1.51,1.51-0.84.84-0.84-.84,0.84-.84Zm-1.51,1.51-0.79.79-0.84-.84,0.79-.79Zm-1.51,1.51-0.79.79-0.84-.84L122.9,99Zm-1.46,1.46-0.84.84-0.84-.84,0.84-.84Zm-1.51,1.51-0.84.84-0.84-.84,0.84-.84Zm-1.51,1.51-0.84.84-0.84-.84,0.84-.84Zm-1.51,1.51-0.84.84-0.84-.84,0.84-.84Zm0.67,0.67,0.84,0.84-0.84.84-0.84-.84Zm1.51,1.51,0.84,0.84-0.84.84-0.84-.84Zm1.51,1.51,0.84,0.84-0.84.84-0.84-.84ZM123,111l0.79,0.79-0.84.84-0.79-.79Zm1.51,1.51,0.79,0.79-0.84.84-0.79-.79Zm1.46,1.46,0.84,0.84-0.84.84-0.84-.84Zm1.51,1.51,0.84,0.84-0.84.84-0.84-.84Zm1.51,1.51,0.84,0.84-0.84.84-0.84-.84Zm1.51,1.51,0.84,0.84-0.84.84-0.84-.84Zm1.51,1.51,0.84,0.84-0.84.84-0.84-.84Zm0.67-.67,0.84-.84,0.84,0.84-0.84.84Zm1.51-1.51L135,117l0.84,0.84-0.84.84Zm1.51-1.51,0.84-.84,0.84,0.84-0.84.84Zm1.51-1.51,0.79-.79,0.84,0.84-0.79.79Zm1.51-1.51,0.79-.79,0.84,0.84-0.79.79Zm1.46-1.46,0.84-.84,0.84,0.84-0.84.84Zm1.51-1.51,0.84-.84,0.84,0.84-0.84.84Zm1.51-1.51L144,108l0.84,0.84-0.84.84Zm1.51-1.51,0.84-.84,0.84,0.84-0.84.84Zm1.51-1.51L147,105l0.84,0.84-0.84.84Zm-0.67-.67-0.84-.84,0.84-.84,0.84,0.84ZM144,103.61l-0.84-.84,0.84-.84,0.84,0.84Zm-1.51-1.51-0.84-.84,0.84-.84,0.84,0.84Zm-1.51-1.51-0.84-.84,0.84-.84,0.84,0.84Zm-1.51-1.51-0.79-.79,0.84-.84,0.79,0.79Zm-1.51-1.51-0.79-.79L138,96l0.79,0.79Zm-1.46-1.46-0.84-.84,0.84-.84,0.84,0.84ZM135,94.61l-0.84-.84,0.84-.84,0.84,0.84Zm-1.51-1.51-0.84-.84,0.84-.84,0.84,0.84Zm-1.51-1.51-0.84-.84,0.84-.84,0.84,0.84Zm-1.51-1.51-0.84-.84,0.84-.84,0.84,0.84Zm-0.67.67-0.84.84-0.84-.84,0.84-.84Zm-1.51,1.51-0.84.84-0.84-.84,0.84-.84Zm-1.51,1.51-0.84.84-0.84-.84,0.84-.84Zm-1.51,1.51-0.84.84-0.84-.84,0.84-.84Zm-1.51,1.51-0.79.79-0.84-.84L122.9,96Zm-1.51,1.51-0.79.79-0.84-.84,0.79-.79Zm-1.46,1.46-0.84.84-0.84-.84,0.84-.84Zm-1.51,1.51-0.84.84-0.84-.84,0.84-.84Zm-1.51,1.51-0.84.84-0.84-.84,0.84-.84Zm-1.51,1.51-0.84.84-0.84-.84,0.84-.84Zm-1.51,1.51-0.84.84-0.84-.84,0.84-.84Zm0.67,0.67,0.84,0.84-0.84.84-0.84-.84Zm1.51,1.51,0.84,0.84-0.84.84-0.84-.84Zm1.51,1.51,0.84,0.84-0.84.84-0.84-.84Zm1.51,1.51,0.84,0.84-0.84.84-0.84-.84Zm1.51,1.51,0.79,0.79-0.84.84-0.79-.79ZM123,114l0.79,0.79-0.84.84-0.79-.79Zm1.46,1.46,0.84,0.84-0.84.84-0.84-.84Zm1.51,1.51,0.84,0.84-0.84.84-0.84-.84Zm1.51,1.51,0.84,0.84-0.84.84-0.84-.84Zm1.51,1.51,0.84,0.84-0.84.84-0.84-.84Zm1.51,1.51,0.84,0.84-0.84.84-0.84-.84Zm1.51,1.51,0.84,0.84-0.84.84-0.84-.84Zm0.67-.67,0.84-.84,0.84,0.84-0.84.84Zm1.51-1.51L135,120l0.84,0.84-0.84.84Zm1.51-1.51,0.84-.84,0.84,0.84-0.84.84Zm1.51-1.51L138,117l0.84,0.84-0.84.84Zm1.51-1.51,0.79-.79,0.84,0.84-0.79.79Zm1.51-1.51,0.79-.79,0.84,0.84-0.79.79Zm1.46-1.46,0.84-.84,0.84,0.84-0.84.84Zm1.51-1.51L144,111l0.84,0.84-0.84.84Zm1.51-1.51,0.84-.84,0.84,0.84-0.84.84Zm1.51-1.51L147,108l0.84,0.84-0.84.84Zm1.51-1.51,0.84-.84,0.84,0.84-0.84.84Zm1.51-1.51L150,105l0.84,0.84-0.84.84Zm-0.67-.67-0.84-.84,0.84-.84,0.84,0.84ZM147,103.61l-0.84-.84,0.84-.84,0.84,0.84Zm-1.51-1.51-0.84-.84,0.84-.84,0.84,0.84ZM144,100.59l-0.84-.84,0.84-.84,0.84,0.84Zm-1.51-1.51-0.84-.84,0.84-.84,0.84,0.84Zm-1.51-1.51-0.79-.79L141,96l0.79,0.79Zm-1.51-1.51-0.79-.79,0.84-.84,0.79,0.79ZM138,94.61l-0.84-.84,0.84-.84,0.84,0.84Zm-1.51-1.51-0.84-.84,0.84-.84,0.84,0.84ZM135,91.59l-0.84-.84,0.84-.84,0.84,0.84Zm-1.51-1.51-0.84-.84,0.84-.84,0.84,0.84Zm-1.51-1.51-0.84-.84,0.84-.84,0.84,0.84Zm-1.51-1.51-0.84-.84,0.84-.84,0.84,0.84Zm-0.67.67-0.84.84-0.84-.84,0.84-.84Zm-1.51,1.51-0.84.84-0.84-.84,0.84-.84Zm-1.51,1.51-0.84.84-0.84-.84,0.84-.84Zm-1.51,1.51-0.84.84-0.84-.84,0.84-.84Zm-1.51,1.51-0.84.84-0.84-.84,0.84-.84Zm-1.51,1.51-0.79.79-0.84-.84,0.79-.79Zm-1.51,1.51-0.79.79-0.84-.84,0.79-.79Zm-1.46,1.46-0.84.84-0.84-.84,0.84-.84Zm-1.51,1.51-0.84.84-0.84-.84,0.84-.84Zm-1.51,1.51-0.84.84-0.84-.84,0.84-.84Zm-1.51,1.51-0.84.84-0.84-.84,0.84-.84Zm-1.51,1.51-0.84.84-0.84-.84,0.84-.84Zm-1.51,1.51-0.84.84-0.84-.84,0.84-.84Zm0.67,0.67,0.84,0.84-0.84.84-0.84-.84ZM113.9,108l0.84,0.84-0.84.84-0.84-.84Zm1.51,1.51,0.84,0.84-0.84.84-0.84-.84Zm1.51,1.51,0.84,0.84-0.84.84-0.84-.84Zm1.51,1.51,0.84,0.84-0.84.84-0.84-.84Zm1.51,1.51,0.79,0.79-0.84.84-0.79-.79Zm1.51,1.51,0.79,0.79-0.84.84-0.79-.79ZM122.9,117l0.84,0.84-0.84.84-0.84-.84Zm1.51,1.51,0.84,0.84-0.84.84-0.84-.84Zm1.51,1.51,0.84,0.84-0.84.84-0.84-.84Zm1.51,1.51,0.84,0.84-0.84.84-0.84-.84Zm1.51,1.51,0.84,0.84-0.84.84-0.84-.84Zm1.51,1.51,0.84,0.84-0.84.84-0.84-.84Zm1.51,1.51,0.84,0.84-0.84.84-0.84-.84Zm0.67-.67,0.84-.84,0.84,0.84-0.84.84Zm1.51-1.51L135,123l0.84,0.84-0.84.84Zm1.51-1.51,0.84-.84,0.84,0.84-0.84.84Zm1.51-1.51L138,120l0.84,0.84-0.84.84Zm1.51-1.51,0.84-.84,0.84,0.84-0.84.84Zm1.51-1.51,0.79-.79,0.84,0.84-0.79.79Zm1.51-1.51,0.79-.79,0.84,0.84-0.79.79Zm1.46-1.46L144,114l0.84,0.84-0.84.84Zm1.51-1.51,0.84-.84,0.84,0.84-0.84.84Zm1.51-1.51L147,111l0.84,0.84-0.84.84Zm1.51-1.51,0.84-.84,0.84,0.84-0.84.84Zm1.51-1.51L150,108l0.84,0.84-0.84.84Zm1.51-1.51,0.84-.84,0.84,0.84-0.84.84Zm1.51-1.51L153,105l0.84,0.84-0.84.84Zm-0.67-.67-0.84-.84,0.84-.84,0.84,0.84ZM150,103.61l-0.84-.84,0.84-.84,0.84,0.84Zm-1.51-1.51-0.84-.84,0.84-.84,0.84,0.84ZM147,100.59l-0.84-.84,0.84-.84,0.84,0.84Zm-1.51-1.51-0.84-.84,0.84-.84,0.84,0.84ZM144,97.58l-0.84-.84L144,95.9l0.84,0.84Zm-1.51-1.51-0.79-.79,0.84-.84,0.79,0.79Zm-1.51-1.51-0.79-.79,0.84-.84,0.79,0.79Zm-1.46-1.46-0.84-.84,0.84-.84,0.84,0.84ZM138,91.59l-0.84-.84,0.84-.84,0.84,0.84Zm-1.51-1.51-0.84-.84,0.84-.84,0.84,0.84ZM135,88.58l-0.84-.84L135,86.9l0.84,0.84Zm-1.51-1.51-0.84-.84,0.84-.84,0.84,0.84Zm-1.51-1.51-0.84-.84,0.84-.84,0.84,0.84Zm-1.51-1.51-0.84-.84,0.84-.84,0.84,0.84Zm-0.67.67-0.84.84-0.84-.84,0.84-.84Zm-1.51,1.51-0.84.84-0.84-.84,0.84-.84Zm-1.51,1.51-0.84.84-0.84-.84,0.84-.84Zm-1.51,1.51-0.84.84-0.84-.84,0.84-.84Zm-1.51,1.51-0.84.84-0.84-.84,0.84-.84Zm-1.51,1.51-0.84.84-0.84-.84,0.84-.84Zm-1.51,1.51-0.79.79-0.84-.84,0.79-.79Zm-1.51,1.51-0.79.79-0.84-.84,0.79-.79Zm-1.46,1.46-0.84.84-0.84-.84,0.84-.84Zm-1.51,1.51-0.84.84-0.84-.84,0.84-.84Zm-1.51,1.51-0.84.84-0.84-.84,0.84-.84Zm-1.51,1.51-0.84.84-0.84-.84,0.84-.84Zm-1.51,1.51-0.84.84-0.84-.84,0.84-.84Zm-1.51,1.51-0.84.84-0.84-.84,0.84-.84Zm-1.51,1.51-0.84.84-0.84-.84,0.84-.84Zm0.67,0.67,0.84,0.84-0.84.84-0.84-.84Zm1.51,1.51,0.84,0.84-0.84.84L110,108.8Zm1.51,1.51,0.84,0.84-0.84.84-0.84-.84ZM113.9,111l0.84,0.84-0.84.84-0.84-.84Zm1.51,1.51,0.84,0.84-0.84.84-0.84-.84Zm1.51,1.51,0.84,0.84-0.84.84-0.84-.84Zm1.51,1.51,0.79,0.79-0.84.84-0.79-.79Zm1.51,1.51,0.79,0.79-0.84.84-0.79-.79Zm1.46,1.46,0.84,0.84-0.84.84-0.84-.84ZM122.9,120l0.84,0.84-0.84.84-0.84-.84Zm1.51,1.51,0.84,0.84-0.84.84-0.84-.84Zm1.51,1.51,0.84,0.84-0.84.84-0.84-.84Zm1.51,1.51,0.84,0.84-0.84.84-0.84-.84Zm1.51,1.51,0.84,0.84-0.84.84-0.84-.84Zm1.51,1.51,0.84,0.84-0.84.84-0.84-.84Zm1.51,1.51,0.84,0.84-0.84.84-0.84-.84Zm0.67-.67,0.84-.84,0.84,0.84-0.84.84Zm1.51-1.51L135,126l0.84,0.84-0.84.84Zm1.51-1.51,0.84-.84,0.84,0.84-0.84.84Zm1.51-1.51L138,123l0.84,0.84-0.84.84Zm1.51-1.51,0.84-.84,0.84,0.84-0.84.84Zm1.51-1.51L141,120l0.84,0.84-0.84.84Zm1.51-1.51,0.79-.79,0.84,0.84-0.79.79Zm1.51-1.51L144,117l0.84,0.84-0.79.79Zm1.46-1.46,0.84-.84,0.84,0.84-0.84.84Zm1.51-1.51L147,114l0.84,0.84-0.84.84Zm1.51-1.51,0.84-.84,0.84,0.84-0.84.84Zm1.51-1.51L150,111l0.84,0.84-0.84.84Zm1.51-1.51,0.84-.84,0.84,0.84-0.84.84Zm1.51-1.51L153,108l0.84,0.84-0.84.84Zm1.51-1.51,0.84-.84,0.84,0.84-0.84.84Zm1.51-1.51L156,105l0.84,0.84-0.84.84Zm-0.67-.67-0.84-.84,0.84-.84,0.84,0.84ZM153,103.61l-0.84-.84,0.84-.84,0.84,0.84Zm-1.51-1.51-0.84-.84,0.84-.84,0.84,0.84ZM150,100.59l-0.84-.84,0.84-.84,0.84,0.84Zm-1.51-1.51-0.84-.84,0.84-.84,0.84,0.84ZM147,97.58l-0.84-.84L147,95.9l0.84,0.84Zm-1.51-1.51-0.84-.84,0.84-.84,0.84,0.84ZM144,94.56l-0.79-.79,0.84-.84,0.79,0.79Zm-1.51-1.51-0.79-.79,0.84-.84,0.79,0.79ZM141,91.59l-0.84-.84,0.84-.84,0.84,0.84Zm-1.51-1.51-0.84-.84,0.84-.84,0.84,0.84ZM138,88.58l-0.84-.84L138,86.9l0.84,0.84Zm-1.51-1.51-0.84-.84,0.84-.84,0.84,0.84ZM135,85.56l-0.84-.84,0.84-.84,0.84,0.84Zm-1.51-1.51-0.84-.84,0.84-.84,0.84,0.84Zm-1.51-1.51-0.84-.84,0.84-.84,0.84,0.84ZM130.44,81l-0.84-.84,0.84-.84,0.84,0.84Zm-0.67.67-0.84.84-0.84-.84,0.84-.84Zm-1.51,1.51-0.84.84-0.84-.84,0.84-.84Zm-1.51,1.51-0.84.84-0.84-.84,0.84-.84Zm-1.51,1.51-0.84.84-0.84-.84,0.84-.84Zm-1.51,1.51-0.84.84-0.84-.84,0.84-.84Zm-1.51,1.51-0.84.84-0.84-.84,0.84-.84Zm-1.51,1.51-0.84.84L119,90.75l0.84-.84Zm-1.51,1.51-0.79.79-0.84-.84,0.79-.79Zm-1.51,1.51-0.79.79-0.84-.84,0.79-.79Zm-1.46,1.46-0.84.84-0.84-.84,0.84-.84Zm-1.51,1.51-0.84.84-0.84-.84,0.84-.84Zm-1.51,1.51-0.84.84-0.84-.84,0.84-.84Zm-1.51,1.51-0.84.84L110,99.75l0.84-.84Zm-1.51,1.51-0.84.84-0.84-.84,0.84-.84Zm-1.51,1.51-0.84.84-0.84-.84,0.84-.84Zm-1.51,1.51-0.84.84-0.84-.84,0.84-.84Zm-1.51,1.51-0.84.84-0.84-.84,0.84-.84Zm0.67,0.67,0.84,0.84-0.84.84-0.84-.84Zm1.51,1.51,0.84,0.84-0.84.84L107,108.8Zm1.51,1.51,0.84,0.84-0.84.84-0.84-.84Zm1.51,1.51,0.84,0.84-0.84.84-0.84-.84Zm1.51,1.51,0.84,0.84-0.84.84-0.84-.84ZM113.9,114l0.84,0.84-0.84.84-0.84-.84Zm1.51,1.51,0.84,0.84-0.84.84-0.84-.84Zm1.51,1.51,0.79,0.79-0.84.84-0.79-.79Zm1.51,1.51,0.79,0.79-0.84.84-0.79-.79Zm1.46,1.46,0.84,0.84-0.84.84-0.84-.84Zm1.51,1.51,0.84,0.84-0.84.84-0.84-.84ZM122.9,123l0.84,0.84-0.84.84-0.84-.84Zm1.51,1.51,0.84,0.84-0.84.84-0.84-.84Zm1.51,1.51,0.84,0.84-0.84.84-0.84-.84Zm1.51,1.51,0.84,0.84-0.84.84-0.84-.84Zm1.51,1.51,0.84,0.84-0.84.84-0.84-.84Zm1.51,1.51,0.84,0.84-0.84.84-0.84-.84Zm1.51,1.51,0.84,0.84-0.84.84-0.84-.84Zm0.67-.67,0.84-.84,0.84,0.84-0.84.84Zm1.51-1.51L135,129l0.84,0.84-0.84.84Zm1.51-1.51,0.84-.84,0.84,0.84-0.84.84Zm1.51-1.51L138,126l0.84,0.84-0.84.84Zm1.51-1.51,0.84-.84,0.84,0.84-0.84.84Zm1.51-1.51L141,123l0.84,0.84-0.84.84Zm1.51-1.51,0.84-.84,0.84,0.84-0.84.84Zm1.51-1.51L144,120l0.84,0.84-0.79.79Zm1.51-1.51,0.79-.79,0.84,0.84-0.79.79Zm1.46-1.46L147,117l0.84,0.84-0.84.84Zm1.51-1.51,0.84-.84,0.84,0.84-0.84.84Zm1.51-1.51L150,114l0.84,0.84-0.84.84Zm1.51-1.51,0.84-.84,0.84,0.84-0.84.84Zm1.51-1.51L153,111l0.84,0.84-0.84.84Zm1.51-1.51,0.84-.84,0.84,0.84-0.84.84Zm1.51-1.51L156,108l0.84,0.84-0.84.84Zm1.51-1.51,0.84-.84,0.84,0.84-0.84.84Zm1.51-1.51L159,105l0.84,0.84-0.84.84Zm-0.67-.67-0.84-.84,0.84-.84,0.84,0.84ZM156,103.61l-0.84-.84,0.84-.84,0.84,0.84Zm-1.51-1.51-0.84-.84,0.84-.84,0.84,0.84ZM153,100.59l-0.84-.84,0.84-.84,0.84,0.84Zm-1.51-1.51-0.84-.84,0.84-.84,0.84,0.84ZM150,97.58l-0.84-.84L150,95.9l0.84,0.84Zm-1.51-1.51-0.84-.84,0.84-.84,0.84,0.84ZM147,94.56l-0.84-.84,0.84-.84,0.84,0.84Zm-1.51-1.51-0.79-.79,0.84-.84,0.79,0.79ZM144,91.54l-0.79-.79,0.84-.84,0.79,0.79Zm-1.46-1.46-0.84-.84,0.84-.84,0.84,0.84ZM141,88.58l-0.84-.84L141,86.9l0.84,0.84Zm-1.51-1.51-0.84-.84,0.84-.84,0.84,0.84ZM138,85.56l-0.84-.84,0.84-.84,0.84,0.84Zm-1.51-1.51-0.84-.84,0.84-.84,0.84,0.84ZM135,82.54l-0.84-.84,0.84-.84,0.84,0.84ZM133.46,81l-0.84-.84,0.84-.84,0.84,0.84Zm-1.51-1.51-0.84-.84,0.84-.84,0.84,0.84ZM130.44,78l-0.84-.84,0.84-.84,0.84,0.84Zm-0.67.67-0.84.84-0.84-.84,0.84-.84Zm-1.51,1.51-0.84.84-0.84-.84,0.84-.84Zm-1.51,1.51-0.84.84-0.84-.84,0.84-.84Zm-1.51,1.51-0.84.84-0.84-.84,0.84-.84Zm-1.51,1.51-0.84.84-0.84-.84,0.84-.84Zm-1.51,1.51-0.84.84-0.84-.84,0.84-.84Zm-1.51,1.51-0.84.84L119,87.74l0.84-.84Zm-1.51,1.51-0.84.84-0.84-.84,0.84-.84Zm-1.51,1.51-0.79.79-0.84-.84,0.79-.79Zm-1.51,1.51-0.79.79-0.84-.84,0.79-.79Zm-1.46,1.46-0.84.84-0.84-.84,0.84-.84Zm-1.51,1.51-0.84.84-0.84-.84,0.84-.84Zm-1.51,1.51-0.84.84L110,96.74l0.84-.84Zm-1.51,1.51-0.84.84-0.84-.84,0.84-.84Zm-1.51,1.51-0.84.84L107,99.75l0.84-.84Zm-1.51,1.51-0.84.84-0.84-.84,0.84-.84Zm-1.51,1.51-0.84.84-0.84-.84,0.84-.84Zm-1.51,1.51-0.84.84-0.84-.84,0.84-.84Zm-1.51,1.51-0.84.84-0.84-.84,0.84-.84Zm0.67,0.67,0.84,0.84-0.84.84-0.84-.84Zm1.51,1.51,0.84,0.84-0.84.84L104,108.8Zm1.51,1.51,0.84,0.84-0.84.84-0.84-.84Zm1.51,1.51,0.84,0.84-0.84.84-0.84-.84Zm1.51,1.51,0.84,0.84-0.84.84-0.84-.84Zm1.51,1.51,0.84,0.84-0.84.84-0.84-.84Zm1.51,1.51,0.84,0.84-0.84.84-0.84-.84ZM113.9,117l0.84,0.84-0.84.84-0.84-.84Zm1.51,1.51,0.79,0.79-0.84.84-0.79-.79Zm1.51,1.51,0.79,0.79-0.84.84-0.79-.79Zm1.46,1.46,0.84,0.84-0.84.84-0.84-.84Zm1.51,1.51,0.84,0.84-0.84.84-0.84-.84Zm1.51,1.51,0.84,0.84-0.84.84-0.84-.84ZM122.9,126l0.84,0.84-0.84.84-0.84-.84Zm1.51,1.51,0.84,0.84-0.84.84-0.84-.84Zm1.51,1.51,0.84,0.84-0.84.84-0.84-.84Zm1.51,1.51,0.84,0.84-0.84.84-0.84-.84Zm1.51,1.51,0.84,0.84-0.84.84-0.84-.84Zm1.51,1.51,0.84,0.84-0.84.84-0.84-.84Zm1.51,1.51,0.84,0.84-0.84.84-0.84-.84Zm0.67-.67,0.84-.84,0.84,0.84-0.84.84Zm1.51-1.51L135,132l0.84,0.84-0.84.84Zm1.51-1.51,0.84-.84,0.84,0.84-0.84.84Zm1.51-1.51L138,129l0.84,0.84-0.84.84Zm1.51-1.51,0.84-.84,0.84,0.84-0.84.84Zm1.51-1.51L141,126l0.84,0.84-0.84.84Zm1.51-1.51,0.84-.84,0.84,0.84-0.84.84Zm1.51-1.51L144,123l0.84,0.84-0.84.84Zm1.51-1.51,0.79-.79,0.84,0.84-0.79.79Zm1.51-1.51L147,120l0.84,0.84-0.79.79Zm1.46-1.46,0.84-.84,0.84,0.84-0.84.84Zm1.51-1.51L150,117l0.84,0.84-0.84.84Zm1.51-1.51,0.84-.84,0.84,0.84-0.84.84Zm1.51-1.51L153,114l0.84,0.84-0.84.84Zm1.51-1.51,0.84-.84,0.84,0.84-0.84.84Zm1.51-1.51L156,111l0.84,0.84-0.84.84Zm1.51-1.51,0.84-.84,0.84,0.84-0.84.84Zm1.51-1.51L159,108l0.84,0.84-0.84.84Zm1.51-1.51,0.84-.84,0.84,0.84-0.84.84Zm1.51-1.51,0.84-.84,0.84,0.84-0.84.84Zm-0.67-.67-0.84-.84,0.84-.84,0.84,0.84ZM159,103.61l-0.84-.84,0.84-.84,0.84,0.84Zm-1.51-1.51-0.84-.84,0.84-.84,0.84,0.84ZM156,100.59l-0.84-.84,0.84-.84,0.84,0.84Zm-1.51-1.51-0.84-.84,0.84-.84,0.84,0.84ZM153,97.58l-0.84-.84L153,95.9l0.84,0.84Zm-1.51-1.51-0.84-.84,0.84-.84,0.84,0.84ZM150,94.56l-0.84-.84,0.84-.84,0.84,0.84Zm-1.51-1.51-0.84-.84,0.84-.84,0.84,0.84ZM147,91.54l-0.79-.79,0.84-.84,0.79,0.79ZM145.47,90l-0.79-.79,0.84-.84,0.79,0.79ZM144,88.58l-0.84-.84L144,86.9l0.84,0.84Zm-1.51-1.51-0.84-.84,0.84-.84,0.84,0.84ZM141,85.56l-0.84-.84,0.84-.84,0.84,0.84Zm-1.51-1.51-0.84-.84,0.84-.84,0.84,0.84ZM138,82.54l-0.84-.84,0.84-.84,0.84,0.84ZM136.47,81l-0.84-.84,0.84-.84,0.84,0.84ZM135,79.53l-0.84-.84,0.84-.84,0.84,0.84ZM133.46,78l-0.84-.84,0.84-.84,0.84,0.84Zm-1.51-1.51-0.84-.84,0.84-.84,0.84,0.84ZM130.44,75l-0.84-.84,0.84-.84,0.84,0.84Zm-0.67.67-0.84.84-0.84-.84,0.84-.84Zm-1.51,1.51-0.84.84-0.84-.84,0.84-.84Zm-1.51,1.51-0.84.84-0.84-.84,0.84-.84Zm-1.51,1.51-0.84.84-0.84-.84,0.84-.84Zm-1.51,1.51-0.84.84-0.84-.84,0.84-.84Zm-1.51,1.51-0.84.84-0.84-.84,0.84-.84Zm-1.51,1.51-0.84.84L119,84.72l0.84-.84Zm-1.51,1.51-0.84.84-0.84-.84,0.84-.84Zm-1.51,1.51-0.84.84L116,87.74l0.84-.84Zm-1.51,1.51-0.79.79-0.84-.84,0.79-.79Zm-1.51,1.51-0.79.79-0.84-.84,0.79-.79Zm-1.46,1.46-0.84.84-0.84-.84,0.84-.84Zm-1.51,1.51-0.84.84L110,93.72l0.84-.84Zm-1.51,1.51-0.84.84-0.84-.84,0.84-.84Zm-1.51,1.51-0.84.84L107,96.74l0.84-.84Zm-1.51,1.51-0.84.84-0.84-.84,0.84-.84Zm-1.51,1.51-0.84.84L104,99.75l0.84-.84Zm-1.51,1.51-0.84.84-0.84-.84,0.84-.84Zm-1.51,1.51-0.84.84-0.84-.84,0.84-.84Zm-1.51,1.51-0.84.84-0.84-.84,0.84-.84Zm-1.51,1.51-0.84.84L98,105.79l0.84-.84Zm0.67,0.67,0.84,0.84-0.84.84-0.84-.84Zm1.51,1.51,0.84,0.84-0.84.84L101,108.8Zm1.51,1.51,0.84,0.84-0.84.84-0.84-.84Zm1.51,1.51,0.84,0.84-0.84.84-0.84-.84Zm1.51,1.51,0.84,0.84-0.84.84-0.84-.84Zm1.51,1.51,0.84,0.84-0.84.84-0.84-.84Zm1.51,1.51,0.84,0.84-0.84.84-0.84-.84Zm1.51,1.51,0.84,0.84-0.84.84-0.84-.84Zm1.51,1.51,0.84,0.84-0.84.84-0.84-.84ZM113.9,120l0.79,0.79-0.84.84-0.79-.79Zm1.51,1.51,0.79,0.79-0.84.84-0.79-.79Zm1.46,1.46,0.84,0.84-0.84.84-0.84-.84Zm1.51,1.51,0.84,0.84-0.84.84-0.84-.84Zm1.51,1.51,0.84,0.84-0.84.84-0.84-.84Zm1.51,1.51,0.84,0.84-0.84.84-0.84-.84ZM122.9,129l0.84,0.84-0.84.84-0.84-.84Zm1.51,1.51,0.84,0.84-0.84.84-0.84-.84Zm1.51,1.51,0.84,0.84-0.84.84-0.84-.84Zm1.51,1.51,0.84,0.84-0.84.84-0.84-.84Zm1.51,1.51,0.84,0.84-0.84.84-0.84-.84Zm1.51,1.51,0.84,0.84-0.84.84-0.84-.84Zm1.51,1.51,0.84,0.84-0.84.84-0.84-.84Zm0.67-.67,0.84-.84,0.84,0.84-0.84.84Zm1.51-1.51,0.84-.84,0.84,0.84-0.84.84Zm1.51-1.51,0.84-.84,0.84,0.84-0.84.84Zm1.51-1.51L138,132l0.84,0.84-0.84.84Zm1.51-1.51,0.84-.84,0.84,0.84-0.84.84Zm1.51-1.51L141,129l0.84,0.84-0.84.84Zm1.51-1.51,0.84-.84,0.84,0.84-0.84.84Zm1.51-1.51L144,126l0.84,0.84-0.84.84Zm1.51-1.51,0.84-.84,0.84,0.84-0.84.84Zm1.51-1.51,0.79-.79,0.84,0.84-0.79.79Zm1.51-1.51,0.79-.79,0.84,0.84-0.79.79Zm1.46-1.46L150,120l0.84,0.84-0.84.84Zm1.51-1.51,0.84-.84,0.84,0.84-0.84.84Zm1.51-1.51L153,117l0.84,0.84-0.84.84Zm1.51-1.51,0.84-.84,0.84,0.84-0.84.84Zm1.51-1.51L156,114l0.84,0.84-0.84.84Zm1.51-1.51,0.84-.84,0.84,0.84-0.84.84Zm1.51-1.51L159,111l0.84,0.84-0.84.84Zm1.51-1.51,0.84-.84,0.84,0.84-0.84.84Zm1.51-1.51,0.84-.84,0.84,0.84-0.84.84Zm1.51-1.51,0.83-.84,0.84,0.84-0.84.84Zm1.51-1.51,0.84-.84,0.84,0.84-0.84.84Zm-0.67-.67-0.83-.84,0.83-.84,0.84,0.84Zm-1.51-1.51-0.84-.84,0.84-.84,0.84,0.84Zm-1.51-1.51-0.84-.84,0.84-.84,0.84,0.84ZM159,100.59l-0.84-.84,0.84-.84,0.84,0.84Zm-1.51-1.51-0.84-.84,0.84-.84,0.84,0.84ZM156,97.58l-0.84-.84L156,95.9l0.84,0.84Zm-1.51-1.51-0.84-.84,0.84-.84,0.84,0.84ZM153,94.56l-0.84-.84,0.84-.84,0.84,0.84Zm-1.51-1.51-0.84-.84,0.84-.84,0.84,0.84ZM150,91.54l-0.84-.84,0.84-.84,0.84,0.84ZM148.49,90l-0.79-.79,0.84-.84,0.79,0.79ZM147,88.53l-0.79-.79L147,86.9l0.79,0.79Zm-1.46-1.46-0.84-.84,0.84-.84,0.84,0.84ZM144,85.56l-0.84-.84,0.84-.84,0.84,0.84Zm-1.51-1.51-0.84-.84,0.84-.84,0.84,0.84ZM141,82.54l-0.84-.84,0.84-.84,0.84,0.84ZM139.49,81l-0.84-.84,0.84-.84,0.84,0.84ZM138,79.53l-0.84-.84,0.84-.84,0.84,0.84ZM136.47,78l-0.84-.84,0.84-.84,0.84,0.84ZM135,76.51l-0.84-.84,0.84-.84,0.84,0.84ZM133.46,75l-0.84-.84,0.84-.84,0.84,0.84Zm-1.51-1.51-0.84-.84,0.84-.84,0.84,0.84ZM130.44,72l-0.84-.84,0.84-.84,0.84,0.84Zm-0.67.67-0.84.84-0.84-.84,0.84-.84Zm-1.51,1.51-0.84.84-0.84-.84,0.84-.84Zm-1.51,1.51-0.84.84-0.84-.84,0.84-.84Zm-1.51,1.51-0.84.84-0.84-.84,0.84-.84Zm-1.51,1.51-0.84.84-0.84-.84,0.84-.84Zm-1.51,1.51-0.84.84-0.84-.84,0.84-.84Zm-1.51,1.51-0.84.84L119,81.71l0.84-.84Zm-1.51,1.51-0.84.84-0.84-.84,0.84-.84Zm-1.51,1.51-0.84.84L116,84.72l0.84-.84Zm-1.51,1.51-0.84.84-0.84-.84,0.84-.84Zm-1.51,1.51-0.79.79-0.84-.84,0.79-.79Zm-1.51,1.51-0.79.79-0.84-.84,0.79-.79Zm-1.46,1.46-0.84.84L110,90.71l0.84-.84Zm-1.51,1.51-0.84.84-0.84-.84,0.84-.84Zm-1.51,1.51-0.84.84L107,93.72l0.84-.84Zm-1.51,1.51-0.84.84-0.84-.84,0.84-.84Zm-1.51,1.51-0.84.84L104,96.74l0.84-.84Zm-1.51,1.51-0.84.84-0.84-.84,0.84-.84Zm-1.51,1.51-0.84.84L101,99.75l0.84-.84Zm-1.51,1.51-0.84.84-0.84-.84,0.84-.84Zm-1.51,1.51-0.84.84L98,102.77l0.84-.84Zm-1.51,1.51-0.84.84-0.84-.84,0.84-.84Zm-1.51,1.51-0.84.84L95,105.79,95.8,105Zm0.67,0.67,0.84,0.84-0.84.84-0.84-.84ZM98.82,108l0.84,0.84-0.84.84L98,108.8Zm1.51,1.51,0.84,0.84-0.84.84-0.84-.84Zm1.51,1.51,0.84,0.84-0.84.84-0.84-.84Zm1.51,1.51,0.84,0.84-0.84.84-0.84-.84Zm1.51,1.51,0.84,0.84-0.84.84-0.84-.84Zm1.51,1.51,0.84,0.84-0.84.84-0.84-.84Zm1.51,1.51,0.84,0.84-0.84.84-0.84-.84Zm1.51,1.51,0.84,0.84-0.84.84-0.84-.84Zm1.51,1.51,0.84,0.84-0.84.84-0.84-.84Zm1.51,1.51,0.79,0.79-0.84.84-0.79-.79Zm1.51,1.51,0.79,0.79-0.84.84-0.79-.79Zm1.46,1.46,0.84,0.84-0.84.84-0.84-.84Zm1.51,1.51,0.84,0.84-0.84.84-0.84-.84Zm1.51,1.51,0.84,0.84-0.84.84-0.84-.84Zm1.51,1.51,0.84,0.84-0.84.84-0.84-.84Zm1.51,1.51,0.84,0.84-0.84.84-0.84-.84ZM122.9,132l0.84,0.84-0.84.84-0.84-.84Zm1.51,1.51,0.84,0.84-0.84.84-0.84-.84Zm1.51,1.51,0.84,0.84-0.84.84-0.84-.84Zm1.51,1.51,0.84,0.84-0.84.84-0.84-.84Zm1.51,1.51,0.84,0.84-0.84.84-0.84-.84Zm1.51,1.51,0.84,0.84-0.84.84-0.84-.84Zm1.51,1.51,0.84,0.84-0.84.84-0.84-.84Zm0.67-.67,0.84-.84,0.84,0.84-0.84.84Zm1.51-1.51,0.84-.84,0.84,0.84-0.84.84Zm1.51-1.51,0.84-.84,0.84,0.84-0.84.84Zm1.51-1.51,0.84-.84,0.84,0.84-0.84.84Zm1.51-1.51,0.84-.84,0.84,0.84-0.84.84Zm1.51-1.51L141,132l0.84,0.84-0.84.84Zm1.51-1.51,0.84-.84,0.84,0.84-0.84.84Zm1.51-1.51L144,129l0.84,0.84-0.84.84Zm1.51-1.51,0.84-.84,0.84,0.84-0.84.84Zm1.51-1.51L147,126l0.84,0.84-0.84.84Zm1.51-1.51,0.79-.79,0.84,0.84-0.79.79Zm1.51-1.51,0.79-.79,0.84,0.84-0.79.79Zm1.46-1.46,0.84-.84,0.84,0.84-0.84.84Zm1.51-1.51L153,120l0.84,0.84-0.84.84Zm1.51-1.51,0.84-.84,0.84,0.84-0.84.84Zm1.51-1.51L156,117l0.84,0.84-0.84.84Zm1.51-1.51,0.84-.84,0.84,0.84-0.84.84Zm1.51-1.51L159,114l0.84,0.84-0.84.84Zm1.51-1.51,0.84-.84,0.84,0.84-0.84.84Zm1.51-1.51,0.84-.84,0.84,0.84-0.84.84Zm1.51-1.51,0.83-.84,0.84,0.84-0.84.84Zm1.51-1.51,0.84-.84,0.84,0.84-0.84.84Zm1.51-1.51,0.84-.84,0.84,0.84-0.84.84Zm1.51-1.51,0.84-.84,0.84,0.84-0.84.84Zm-0.67-.67-0.84-.84,0.84-.84,0.84,0.84Zm-1.51-1.51-0.84-.84,0.84-.84,0.84,0.84Zm-1.51-1.51-0.83-.84,0.83-.84,0.84,0.84Zm-1.51-1.51-0.84-.84,0.84-.84,0.84,0.84Zm-1.51-1.51-0.84-.84,0.84-.84,0.84,0.84ZM159,97.58l-0.84-.84L159,95.9l0.84,0.84Zm-1.51-1.51-0.84-.84,0.84-.84,0.84,0.84ZM156,94.56l-0.84-.84,0.84-.84,0.84,0.84Zm-1.51-1.51-0.84-.84,0.84-.84,0.84,0.84ZM153,91.54l-0.84-.84,0.84-.84,0.84,0.84ZM151.51,90l-0.84-.84,0.84-.84,0.84,0.84ZM150,88.53l-0.79-.79,0.84-.84,0.79,0.79ZM148.49,87l-0.79-.79,0.84-.84,0.79,0.79ZM147,85.56l-0.84-.84,0.84-.84,0.84,0.84Zm-1.51-1.51-0.84-.84,0.84-.84,0.84,0.84ZM144,82.54l-0.84-.84,0.84-.84,0.84,0.84ZM142.51,81l-0.84-.84,0.84-.84,0.84,0.84ZM141,79.53l-0.84-.84,0.84-.84,0.84,0.84ZM139.49,78l-0.84-.84,0.84-.84,0.84,0.84ZM138,76.51l-0.84-.84,0.84-.84,0.84,0.84ZM136.47,75l-0.84-.84,0.84-.84,0.84,0.84ZM135,73.49l-0.84-.84,0.84-.84,0.84,0.84ZM133.46,72l-0.84-.84,0.84-.84,0.84,0.84Zm-1.51-1.51-0.84-.84,0.84-.84,0.84,0.84ZM130.44,69l-0.84-.84,0.84-.84,0.84,0.84Zm-0.67.67-0.84.84-0.84-.84,0.84-.84Zm-1.51,1.51-0.84.84-0.84-.84,0.84-.84Zm-1.51,1.51-0.84.84-0.84-.84,0.84-.84Zm-1.51,1.51-0.84.84-0.84-.84,0.84-.84Zm-1.51,1.51-0.84.84-0.84-.84,0.84-.84Zm-1.51,1.51-0.84.84-0.84-.84,0.84-.84Zm-1.51,1.51-0.84.84L119,78.69l0.84-.84Zm-1.51,1.51-0.84.84-0.84-.84,0.84-.84ZM117.7,81.7l-0.84.84L116,81.7l0.84-.84Zm-1.51,1.51-0.84.84-0.84-.84,0.84-.84Zm-1.51,1.51-0.84.84L113,84.72l0.84-.84Zm-1.51,1.51-0.79.79-0.84-.84,0.79-.79Zm-1.51,1.51-0.79.79L110,87.69l0.79-.79Zm-1.46,1.46-0.84.84-0.84-.84,0.84-.84Zm-1.51,1.51-0.84.84L107,90.71l0.84-.84Zm-1.51,1.51-0.84.84-0.84-.84,0.84-.84Zm-1.51,1.51-0.84.84L104,93.72l0.84-.84Zm-1.51,1.51-0.84.84-0.84-.84,0.84-.84Zm-1.51,1.51-0.84.84L101,96.74l0.84-.84Zm-1.51,1.51-0.84.84-0.84-.84,0.84-.84Zm-1.51,1.51-0.84.84L98,99.75l0.84-.84Zm-1.51,1.51-0.84.84-0.84-.84,0.84-.84Zm-1.51,1.51-0.84.84L95,102.77l0.84-.84Zm-1.51,1.51-0.84.84-0.84-.84,0.84-.84Zm-1.51,1.51-0.84.84-0.84-.84,0.84-.84Zm0.67,0.67,0.84,0.84-0.84.84-0.84-.84ZM95.8,108l0.84,0.84-0.84.84L95,108.8Zm1.51,1.51,0.84,0.84-0.84.84-0.84-.84ZM98.82,111l0.84,0.84-0.84.84L98,111.82Zm1.51,1.51,0.84,0.84-0.84.84-0.84-.84Zm1.51,1.51,0.84,0.84-0.84.84-0.84-.84Zm1.51,1.51,0.84,0.84-0.84.84-0.84-.84Zm1.51,1.51,0.84,0.84-0.84.84-0.84-.84Zm1.51,1.51,0.84,0.84-0.84.84-0.84-.84Zm1.51,1.51,0.84,0.84-0.84.84-0.84-.84Zm1.51,1.51,0.84,0.84-0.84.84-0.84-.84Zm1.51,1.51,0.79,0.79-0.84.84-0.79-.79Zm1.51,1.51,0.79,0.79-0.84.84-0.79-.79Zm1.46,1.46,0.84,0.84-0.84.84-0.84-.84Zm1.51,1.51,0.84,0.84-0.84.84-0.84-.84Zm1.51,1.51,0.84,0.84-0.84.84-0.84-.84Zm1.51,1.51,0.84,0.84-0.84.84-0.84-.84Zm1.51,1.51,0.84,0.84-0.84.84-0.84-.84Zm1.51,1.51,0.84,0.84-0.84.84-0.84-.84Zm1.51,1.51,0.84,0.84-0.84.84-0.84-.84Zm1.51,1.51,0.84,0.84-0.84.84-0.84-.84Zm1.51,1.51,0.84,0.84-0.84.84-0.84-.84Zm1.51,1.51,0.84,0.84-0.84.84-0.84-.84Zm1.51,1.51,0.84,0.84-0.84.84-0.84-.84Zm1.51,1.51,0.84,0.84-0.84.84-0.84-.84Zm1.51,1.51,0.84,0.84-0.84.84-0.84-.84Zm0.67-.67,0.84-.84,0.84,0.84-0.84.84Zm1.51-1.51,0.84-.84,0.84,0.84-0.84.84Zm1.51-1.51,0.84-.84,0.84,0.84-0.84.84Zm1.51-1.51,0.84-.84,0.84,0.84-0.84.84Zm1.51-1.51,0.84-.84,0.84,0.84-0.84.84Zm1.51-1.51,0.84-.84,0.84,0.84-0.84.84Zm1.51-1.51,0.84-.84,0.84,0.84-0.84.84Zm1.51-1.51L144,132l0.84,0.84-0.84.84Zm1.51-1.51,0.84-.84,0.84,0.84-0.84.84Zm1.51-1.51L147,129l0.84,0.84-0.84.84Zm1.51-1.51,0.84-.84,0.84,0.84-0.84.84Zm1.51-1.51,0.79-.79,0.84,0.84-0.79.79Zm1.51-1.51,0.79-.79,0.84,0.84-0.79.79Zm1.46-1.46,0.84-.84,0.84,0.84-0.84.84Zm1.51-1.51,0.84-.84,0.84,0.84-0.84.84Zm1.51-1.51L156,120l0.84,0.84-0.84.84Zm1.51-1.51,0.84-.84,0.84,0.84-0.84.84Zm1.51-1.51L159,117l0.84,0.84-0.84.84Zm1.51-1.51,0.84-.84,0.84,0.84-0.84.84Zm1.51-1.51,0.84-.84,0.84,0.84-0.84.84Zm1.51-1.51,0.84-.84,0.84,0.84-0.84.84Zm1.51-1.51,0.84-.84,0.84,0.84-0.84.84Zm1.51-1.51,0.84-.84,0.84,0.84-0.84.84Zm1.51-1.51,0.84-.84,0.84,0.84-0.84.84Zm1.51-1.51,0.84-.84,0.84,0.84-0.84.84Zm1.51-1.51,0.84-.84,0.84,0.84-0.84.84Zm-0.67-.67-0.84-.84,0.84-.84,0.84,0.84Zm-1.51-1.51-0.84-.84,0.84-.84,0.84,0.84Zm-1.51-1.51-0.84-.84,0.84-.84,0.84,0.84Zm-1.51-1.51-0.84-.84,0.84-.84,0.84,0.84Zm-1.51-1.51-0.84-.84,0.84-.84,0.84,0.84Zm-1.51-1.51-0.84-.84,0.84-.84,0.84,0.84Zm-1.51-1.51-0.84-.84,0.84-.84,0.84,0.84ZM159,94.56l-0.84-.84,0.84-.84,0.84,0.84Zm-1.51-1.51-0.84-.84,0.84-.84,0.84,0.84ZM156,91.54l-0.84-.84,0.84-.84,0.84,0.84ZM154.52,90l-0.84-.84,0.84-.84,0.84,0.84ZM153,88.53l-0.84-.84,0.84-.84,0.84,0.84ZM151.51,87l-0.79-.79,0.84-.84,0.79,0.79ZM150,85.51l-0.79-.79,0.84-.84,0.79,0.79Zm-1.46-1.46-0.84-.84,0.84-.84,0.84,0.84ZM147,82.54l-0.84-.84,0.84-.84,0.84,0.84ZM145.52,81l-0.84-.84,0.84-.84,0.84,0.84ZM144,79.53l-0.84-.84,0.84-.84,0.84,0.84ZM142.51,78l-0.84-.84,0.84-.84,0.84,0.84ZM141,76.51l-0.84-.84,0.84-.84,0.84,0.84ZM139.49,75l-0.84-.84,0.84-.84,0.84,0.84ZM138,73.49l-0.84-.84,0.84-.84,0.84,0.84ZM136.47,72l-0.84-.84,0.84-.84,0.84,0.84ZM135,70.48l-0.84-.84L135,68.8l0.84,0.84ZM133.46,69l-0.84-.84,0.84-.84,0.84,0.84Zm-1.51-1.51-0.84-.84,0.84-.84,0.84,0.84ZM130.44,66l-0.84-.84,0.84-.84,0.84,0.84Zm-0.67.67-0.84.84-0.84-.84,0.84-.84Zm-1.51,1.51-0.84.84-0.84-.84,0.84-.84Zm-1.51,1.51-0.84.84-0.84-.84,0.84-.84Zm-1.51,1.51-0.84.84-0.84-.84,0.84-.84Zm-1.51,1.51-0.84.84-0.84-.84,0.84-.84Zm-1.51,1.51-0.84.84-0.84-.84,0.84-.84Zm-1.51,1.51-0.84.84L119,75.67l0.84-.84Zm-1.51,1.51-0.84.84-0.84-.84,0.84-.84Zm-1.51,1.51-0.84.84L116,78.69l0.84-.84ZM116.2,80.2l-0.84.84-0.84-.84,0.84-.84Zm-1.51,1.51-0.84.84L113,81.7l0.84-.84Zm-1.51,1.51-0.84.84-0.84-.84,0.84-.84Zm-1.51,1.51-0.79.79L110,84.67l0.79-.79Zm-1.51,1.51-0.79.79-0.84-.84,0.79-.79Zm-1.46,1.46-0.84.84L107,87.69l0.84-.84ZM107.2,89.2l-0.84.84-0.84-.84,0.84-.84Zm-1.51,1.51-0.84.84L104,90.71l0.84-.84Zm-1.51,1.51-0.84.84-0.84-.84,0.84-.84Zm-1.51,1.51-0.84.84L101,93.72l0.84-.84Zm-1.51,1.51-0.84.84-0.84-.84,0.84-.84Zm-1.51,1.51-0.84.84L98,96.74l0.84-.84Zm-1.51,1.51-0.84.84-0.84-.84,0.84-.84Zm-1.51,1.51-0.84.84L95,99.75l0.84-.84Zm-1.51,1.51-0.84.84-0.84-.84,0.84-.84Zm-1.51,1.51-0.84.84-0.84-.84,0.84-.84Zm-1.51,1.51-0.84.84-0.84-.84,0.84-.84Zm-1.51,1.51-0.84.84-0.84-.84,0.84-.84Zm0.67,0.67,0.84,0.84-0.84.84-0.84-.84ZM92.78,108l0.84,0.84-0.84.84-0.84-.84Zm1.51,1.51,0.84,0.84-0.84.84-0.84-.84ZM95.8,111l0.84,0.84-0.84.84L95,111.82Zm1.51,1.51,0.84,0.84-0.84.84-0.84-.84ZM98.82,114l0.84,0.84-0.84.84L98,114.84Zm1.51,1.51,0.84,0.84-0.84.84-0.84-.84Zm1.51,1.51,0.84,0.84-0.84.84-0.84-.84Zm1.51,1.51,0.84,0.84-0.84.84-0.84-.84Zm1.51,1.51,0.84,0.84-0.84.84-0.84-.84Zm1.51,1.51,0.84,0.84-0.84.84-0.84-.84Zm1.51,1.51,0.84,0.84-0.84.84-0.84-.84Zm1.51,1.51,0.79,0.79-0.84.84-0.79-.79Zm1.51,1.51,0.79,0.79-0.84.84L110,126.9Zm1.46,1.46,0.84,0.84-0.84.84-0.84-.84Zm1.51,1.51,0.84,0.84-0.84.84-0.84-.84Zm1.51,1.51,0.84,0.84-0.84.84-0.84-.84Zm1.51,1.51,0.84,0.84-0.84.84-0.84-.84Zm1.51,1.51,0.84,0.84-0.84.84-0.84-.84Zm1.51,1.51,0.84,0.84-0.84.84L119,135.9Zm1.51,1.51,0.84,0.84-0.84.84-0.84-.84Zm1.51,1.51,0.84,0.84-0.84.84-0.84-.84Zm1.51,1.51,0.84,0.84-0.84.84-0.84-.84Zm1.51,1.51,0.84,0.84-0.84.84-0.84-.84Zm1.51,1.51,0.84,0.84-0.84.84-0.84-.84Zm1.51,1.51,0.84,0.84-0.84.84-0.84-.84Zm1.51,1.51,0.84,0.84-0.84.84-0.84-.84Zm1.51,1.51,0.84,0.84-0.84.84-0.84-.84Zm0.67-.67,0.84-.84,0.84,0.84-0.84.84Zm1.51-1.51,0.84-.84L135.8,145l-0.84.84Zm1.51-1.51,0.84-.84,0.84,0.84-0.84.84Zm1.51-1.51,0.84-.84,0.84,0.84-0.84.84Zm1.51-1.51,0.84-.84,0.84,0.84-0.84.84Zm1.51-1.51,0.84-.84,0.84,0.84-0.84.84Zm1.51-1.51,0.84-.84,0.84,0.84-0.84.84Zm1.51-1.51,0.84-.84,0.84,0.84-0.84.84Zm1.51-1.51,0.84-.84,0.84,0.84-0.84.84Zm1.51-1.51L147,132l0.84,0.84-0.84.84Zm1.51-1.51,0.84-.84,0.84,0.84-0.84.84Zm1.51-1.51,0.84-.84,0.84,0.84-0.84.84Zm1.51-1.51,0.79-.79,0.84,0.84-0.79.79Zm1.51-1.51,0.79-.79,0.84,0.84-0.79.79Zm1.46-1.46,0.84-.84,0.84,0.84-0.84.84Zm1.51-1.51,0.84-.84,0.84,0.84-0.84.84Zm1.51-1.51,0.84-.84,0.84,0.84-0.84.84Zm1.51-1.51L159,120l0.84,0.84-0.84.84Zm1.51-1.51,0.84-.84,0.84,0.84-0.84.84Zm1.51-1.51,0.84-.84,0.84,0.84-0.84.84Zm1.51-1.51,0.83-.84,0.84,0.84-0.84.84Zm1.51-1.51,0.84-.84,0.84,0.84-0.84.84Zm1.51-1.51,0.84-.84,0.84,0.84-0.84.84Zm1.51-1.51,0.84-.84,0.84,0.84-0.84.84Zm1.51-1.51,0.84-.84,0.84,0.84-0.84.84Zm1.51-1.51,0.84-.84L172,108.8l-0.84.84Zm1.51-1.51,0.84-.84,0.84,0.84-0.84.84Zm1.51-1.51,0.84-.84,0.84,0.84-0.84.84Zm-0.67-.67-0.84-.84,0.84-.84,0.84,0.84Zm-1.51-1.51-0.84-.84,0.84-.84,0.84,0.84Zm-1.51-1.51-0.84-.84,0.84-.84,0.84,0.84Zm-1.51-1.51-0.84-.84,0.84-.84,0.84,0.84Zm-1.51-1.51-0.84-.84,0.84-.84,0.84,0.84Zm-1.51-1.51-0.84-.84,0.84-.84,0.84,0.84Zm-1.51-1.51-0.83-.84,0.83-.84,0.84,0.84Zm-1.51-1.51-0.84-.84,0.84-.84,0.84,0.84Zm-1.51-1.51-0.84-.84,0.84-.84,0.84,0.84ZM159,91.54l-0.84-.84,0.84-.84,0.84,0.84ZM157.54,90l-0.84-.84,0.84-.84,0.84,0.84ZM156,88.53l-0.84-.84,0.84-.84,0.84,0.84ZM154.52,87l-0.84-.84,0.84-.84,0.84,0.84ZM153,85.51l-0.79-.79,0.84-.84,0.79,0.79ZM151.51,84l-0.79-.79,0.84-.84,0.79,0.79Zm-1.46-1.46-0.84-.84,0.84-.84,0.84,0.84ZM148.54,81l-0.84-.84,0.84-.84,0.84,0.84ZM147,79.53l-0.84-.84,0.84-.84,0.84,0.84ZM145.53,78l-0.84-.84,0.84-.84,0.84,0.84ZM144,76.51l-0.84-.84,0.84-.84,0.84,0.84ZM142.51,75l-0.84-.84,0.84-.84,0.84,0.84ZM141,73.49l-0.84-.84,0.84-.84,0.84,0.84ZM139.49,72l-0.84-.84,0.84-.84,0.84,0.84ZM138,70.48l-0.84-.84L138,68.8l0.84,0.84ZM136.47,69l-0.84-.84,0.84-.84,0.84,0.84ZM135,67.46l-0.84-.84,0.84-.84,0.84,0.84ZM133.46,66l-0.84-.84,0.84-.84,0.84,0.84Zm-1.51-1.51-0.84-.84,0.84-.84,0.84,0.84Zm-1.51-1.51-0.84-.84,0.84-.84,0.84,0.84Zm-0.67.67-0.84.84-0.84-.84,0.84-.84Zm-1.51,1.51-0.84.84-0.84-.84,0.84-.84Zm-1.51,1.51-0.84.84-0.84-.84,0.84-.84Zm-1.51,1.51-0.84.84-0.84-.84,0.84-.84Zm-1.51,1.51-0.84.84-0.84-.84,0.84-.84Zm-1.51,1.51-0.84.84-0.84-.84,0.84-.84Zm-1.51,1.51-0.84.84L119,72.66l0.84-.84Zm-1.51,1.51-0.84.84-0.84-.84,0.84-.84Zm-1.51,1.51-0.84.84L116,75.67l0.84-.84Zm-1.51,1.51-0.84.84-0.84-.84,0.84-.84Zm-1.51,1.51-0.84.84L113,78.69l0.84-.84Zm-1.51,1.51-0.84.84-0.84-.84,0.84-.84Zm-1.51,1.51-0.84.84L110,81.7l0.84-.84Zm-1.51,1.51-0.79.79-0.84-.84,0.79-.79Zm-1.51,1.51-0.79.79L107,84.67l0.79-.79Zm-1.46,1.46-0.84.84-0.84-.84,0.84-.84Zm-1.51,1.51-0.84.84L104,87.69l0.84-.84Zm-1.51,1.51-0.84.84-0.84-.84,0.84-.84Zm-1.51,1.51-0.84.84L101,90.71l0.84-.84Zm-1.51,1.51-0.84.84-0.84-.84,0.84-.84Zm-1.51,1.51-0.84.84L98,93.72l0.84-.84Zm-1.51,1.51-0.84.84-0.84-.84,0.84-.84Zm-1.51,1.51-0.84.84L95,96.74l0.84-.84Zm-1.51,1.51-0.84.84-0.84-.84,0.84-.84Zm-1.51,1.51-0.84.84-0.84-.84,0.84-.84Zm-1.51,1.51-0.84.84-0.84-.84,0.84-.84Zm-1.51,1.51-0.84.84-0.84-.84,0.84-.84Zm-1.51,1.51-0.84.84-0.84-.84,0.84-.84Zm-1.51,1.51-0.84.84-0.84-.84,0.84-.84Zm0.67,0.67,0.84,0.84-0.84.84-0.84-.84ZM89.77,108l0.84,0.84-0.84.84-0.84-.84Zm1.51,1.51,0.84,0.84-0.84.84-0.84-.84ZM92.78,111l0.84,0.84-0.84.84-0.84-.84Zm1.51,1.51,0.84,0.84-0.84.84-0.84-.84ZM95.8,114l0.84,0.84-0.84.84L95,114.84Zm1.51,1.51,0.84,0.84-0.84.84-0.84-.84ZM98.82,117l0.84,0.84-0.84.84L98,117.85Zm1.51,1.51,0.84,0.84-0.84.84-0.84-.84Zm1.51,1.51,0.84,0.84-0.84.84-0.84-.84Zm1.51,1.51,0.84,0.84-0.84.84-0.84-.84Zm1.51,1.51,0.84,0.84-0.84.84-0.84-.84Zm1.51,1.51,0.84,0.84-0.84.84-0.84-.84Zm1.51,1.51,0.79,0.79-0.84.84L107,126.9Zm1.51,1.51,0.79,0.79-0.84.84-0.79-.79Zm1.46,1.46,0.84,0.84-0.84.84-0.84-.84Zm1.51,1.51,0.84,0.84-0.84.84-0.84-.84Zm1.51,1.51,0.84,0.84-0.84.84-0.84-.84Zm1.51,1.51,0.84,0.84-0.84.84-0.84-.84Zm1.51,1.51,0.84,0.84-0.84.84L116,135.9Zm1.51,1.51,0.84,0.84-0.84.84-0.84-.84Zm1.51,1.51,0.84,0.84-0.84.84-0.84-.84Zm1.51,1.51,0.84,0.84-0.84.84-0.84-.84Zm1.51,1.51,0.84,0.84-0.84.84-0.84-.84Zm1.51,1.51,0.84,0.84-0.84.84-0.84-.84Zm1.51,1.51,0.84,0.84-0.84.84-0.84-.84Zm1.51,1.51,0.84,0.84-0.84.84-0.84-.84Zm1.51,1.51,0.84,0.84-0.84.84-0.84-.84Zm1.51,1.51,0.84,0.84-0.84.84-0.84-.84Zm1.51,1.51,0.84,0.84-0.84.84-0.84-.84Zm0.67-.67,0.84-.84,0.84,0.84-0.84.84Zm1.51-1.51,0.84-.84L135.8,148l-0.84.84Zm1.51-1.51,0.84-.84,0.84,0.84-0.84.84Zm1.51-1.51,0.84-.84,0.84,0.84-0.84.84Zm1.51-1.51,0.84-.84,0.84,0.84-0.84.84Zm1.51-1.51,0.84-.84,0.84,0.84-0.84.84Zm1.51-1.51,0.84-.84,0.84,0.84-0.84.84Zm1.51-1.51,0.84-.84,0.84,0.84-0.84.84Zm1.51-1.51,0.84-.84,0.84,0.84-0.84.84Zm1.51-1.51,0.84-.84,0.84,0.84-0.84.84Zm1.51-1.51,0.84-.84,0.84,0.84-0.84.84Zm1.51-1.51,0.84-.84,0.84,0.84-0.84.84Zm1.51-1.51,0.84-.84,0.84,0.84-0.84.84Zm1.51-1.51,0.79-.79,0.84,0.84-0.79.79Zm1.51-1.51,0.79-.79,0.84,0.84-0.79.79Zm1.46-1.46,0.84-.84,0.84,0.84-0.84.84Zm1.51-1.51,0.84-.84,0.84,0.84-0.84.84Zm1.51-1.51,0.84-.84,0.84,0.84-0.84.84Zm1.51-1.51,0.84-.84,0.84,0.84-0.84.84Zm1.51-1.51,0.84-.84,0.84,0.84-0.84.84Zm1.51-1.51,0.83-.84,0.84,0.84-0.84.84Zm1.51-1.51,0.84-.84,0.84,0.84-0.84.84Zm1.51-1.51,0.84-.84,0.84,0.84-0.84.84Zm1.51-1.51,0.84-.84,0.84,0.84-0.84.84Zm1.51-1.51,0.84-.84,0.84,0.84-0.84.84Zm1.51-1.51,0.84-.84,0.84,0.84-0.84.84Zm1.51-1.51,0.84-.84,0.84,0.84-0.84.84Zm1.51-1.51,0.84-.84L175,108.8l-0.84.84Zm1.51-1.51,0.84-.84,0.84,0.84-0.84.84Zm1.51-1.51,0.84-.84,0.84,0.84-0.84.84Zm-0.67-.67-0.84-.84,0.84-.84,0.84,0.84Zm-1.51-1.51-0.84-.84,0.84-.84,0.84,0.84Zm-1.51-1.51-0.84-.84,0.84-.84,0.84,0.84Zm-1.51-1.51-0.84-.84,0.84-.84L172,99.75Zm-1.51-1.51-0.84-.84,0.84-.84,0.84,0.84Zm-1.51-1.51-0.84-.84,0.84-.84,0.84,0.84Zm-1.51-1.51-0.84-.84,0.84-.84,0.84,0.84Zm-1.51-1.51-0.84-.84,0.84-.84,0.84,0.84Zm-1.51-1.51-0.83-.84,0.83-.84,0.84,0.84Zm-1.51-1.51-0.84-.84,0.84-.84,0.84,0.84ZM160.56,90l-0.84-.84,0.84-.84,0.84,0.84ZM159,88.53l-0.84-.84,0.84-.84,0.84,0.84ZM157.54,87l-0.84-.84,0.84-.84,0.84,0.84ZM156,85.51l-0.84-.84,0.84-.84,0.84,0.84ZM154.52,84l-0.79-.79,0.84-.84,0.79,0.79ZM153,82.49l-0.79-.79,0.84-.84,0.79,0.79ZM151.56,81l-0.84-.84,0.84-.84,0.84,0.84Zm-1.51-1.51-0.84-.84,0.84-.84,0.84,0.84ZM148.54,78l-0.84-.84,0.84-.84,0.84,0.84ZM147,76.51l-0.84-.84,0.84-.84,0.84,0.84ZM145.53,75l-0.84-.84,0.84-.84,0.84,0.84ZM144,73.49l-0.84-.84,0.84-.84,0.84,0.84ZM142.51,72l-0.84-.84,0.84-.84,0.84,0.84ZM141,70.48l-0.84-.84L141,68.8l0.84,0.84ZM139.49,69l-0.84-.84,0.84-.84,0.84,0.84ZM138,67.46l-0.84-.84,0.84-.84,0.84,0.84ZM136.47,66l-0.84-.84,0.84-.84,0.84,0.84ZM135,64.44l-0.84-.84,0.84-.84,0.84,0.84Zm-1.51-1.51-0.84-.84,0.84-.84,0.84,0.84Zm-1.51-1.51-0.84-.84,0.84-.84,0.84,0.84Zm-1.51-1.51-0.84-.84,0.84-.84,0.84,0.84Zm-0.67.67-0.84.84-0.84-.84,0.84-.84Zm-1.51,1.51-0.84.84-0.84-.84,0.84-.84Zm-1.51,1.51-0.84.84-0.84-.84,0.84-.84Zm-1.51,1.51-0.84.84-0.84-.84,0.84-.84Zm-1.51,1.51-0.84.84-0.84-.84,0.84-.84Zm-1.51,1.51-0.84.84-0.84-.84,0.84-.84Zm-1.51,1.51-0.84.84L119,69.64l0.84-.84Zm-1.51,1.51-0.84.84-0.84-.84,0.84-.84Zm-1.51,1.51-0.84.84L116,72.65l0.84-.84Zm-1.51,1.51-0.84.84-0.84-.84,0.84-.84Zm-1.51,1.51-0.84.84L113,75.67l0.84-.84Zm-1.51,1.51-0.84.84-0.84-.84,0.84-.84Zm-1.51,1.51-0.84.84L110,78.69l0.84-.84Zm-1.51,1.51-0.84.84-0.84-.84,0.84-.84Zm-1.51,1.51-0.79.79L107,81.66l0.79-.79Zm-1.51,1.51-0.79.79-0.84-.84,0.79-.79Zm-1.46,1.46-0.84.84L104,84.67l0.84-.84Zm-1.51,1.51-0.84.84-0.84-.84,0.84-.84Zm-1.51,1.51-0.84.84L101,87.69l0.84-.84Zm-1.51,1.51-0.84.84-0.84-.84,0.84-.84Zm-1.51,1.51-0.84.84L98,90.71l0.84-.84Zm-1.51,1.51-0.84.84-0.84-.84,0.84-.84Zm-1.51,1.51-0.84.84L95,93.72l0.84-.84Zm-1.51,1.51-0.84.84-0.84-.84,0.84-.84Zm-1.51,1.51-0.84.84-0.84-.84,0.84-.84Zm-1.51,1.51-0.84.84-0.84-.84,0.84-.84Zm-1.51,1.51-0.84.84-0.84-.84,0.84-.84Zm-1.51,1.51-0.84.84-0.84-.84,0.84-.84Zm-1.51,1.51-0.84.84-0.84-.84,0.84-.84Zm-1.51,1.51-0.84.84-0.84-.84,0.84-.84Zm-1.51,1.51-0.84.84-0.84-.84,0.84-.84Zm0.67,0.67,0.84,0.84-0.84.84-0.84-.84ZM86.75,108l0.84,0.84-0.84.84-0.84-.84Zm1.51,1.51,0.84,0.84-0.84.84-0.84-.84ZM89.77,111l0.84,0.84-0.84.84-0.84-.84Zm1.51,1.51,0.84,0.84-0.84.84-0.84-.84ZM92.78,114l0.84,0.84-0.84.84-0.84-.84Zm1.51,1.51,0.84,0.84-0.84.84-0.84-.84ZM95.8,117l0.84,0.84-0.84.84L95,117.85Zm1.51,1.51,0.84,0.84-0.84.84-0.84-.84ZM98.82,120l0.84,0.84-0.84.84L98,120.87Zm1.51,1.51,0.84,0.84-0.84.84-0.84-.84Zm1.51,1.51,0.84,0.84-0.84.84-0.84-.84Zm1.51,1.51,0.84,0.84-0.84.84-0.84-.84Zm1.51,1.51,0.84,0.84-0.84.84L104,126.9Zm1.51,1.51,0.79,0.79-0.84.84-0.79-.79Zm1.51,1.51,0.79,0.79-0.84.84-0.79-.79Zm1.46,1.46,0.84,0.84-0.84.84-0.84-.84Zm1.51,1.51,0.84,0.84-0.84.84-0.84-.84Zm1.51,1.51,0.84,0.84-0.84.84-0.84-.84Zm1.51,1.51,0.84,0.84-0.84.84L113,135.9Zm1.51,1.51,0.84,0.84-0.84.84-0.84-.84Zm1.51,1.51,0.84,0.84-0.84.84-0.84-.84Zm1.51,1.51,0.84,0.84-0.84.84-0.84-.84Zm1.51,1.51,0.84,0.84-0.84.84-0.84-.84Zm1.51,1.51,0.84,0.84-0.84.84-0.84-.84Zm1.51,1.51,0.84,0.84-0.84.84-0.84-.84Zm1.51,1.51,0.84,0.84-0.84.84-0.84-.84Zm1.51,1.51,0.84,0.84-0.84.84-0.84-.84Zm1.51,1.51,0.84,0.84-0.84.84-0.84-.84Zm1.51,1.51,0.84,0.84-0.84.84L128.1,151Zm1.51,1.51,0.84,0.84-0.84.84-0.84-.84Zm1.51,1.51,0.84,0.84-0.84.84-0.84-.84Zm0.67-.67,0.84-.84,0.84,0.84-0.84.84Zm1.51-1.51,0.84-.84L135.8,151l-0.84.84Zm1.51-1.51,0.84-.84,0.84,0.84-0.84.84Zm1.51-1.51,0.84-.84,0.84,0.84-0.84.84Zm1.51-1.51,0.84-.84,0.84,0.84-0.84.84Zm1.51-1.51,0.84-.84,0.84,0.84-0.84.84Zm1.51-1.51,0.84-.84,0.84,0.84-0.84.84Zm1.51-1.51,0.84-.84,0.84,0.84-0.84.84Zm1.51-1.51,0.84-.84,0.84,0.84-0.84.84Zm1.51-1.51,0.84-.84,0.84,0.84-0.84.84Zm1.51-1.51,0.84-.84,0.84,0.84-0.84.84Zm1.51-1.51,0.84-.84,0.84,0.84-0.84.84Zm1.51-1.51,0.84-.84,0.84,0.84-0.84.84Zm1.51-1.51,0.84-.84,0.84,0.84-0.84.84Zm1.51-1.51,0.79-.79,0.84,0.84-0.79.79Zm1.51-1.51,0.79-.79,0.84,0.84-0.79.79Zm1.46-1.46,0.84-.84,0.84,0.84-0.84.84Zm1.51-1.51,0.84-.84,0.84,0.84-0.84.84Zm1.51-1.51,0.84-.84,0.84,0.84-0.84.84Zm1.51-1.51,0.84-.84,0.84,0.84-0.84.84Zm1.51-1.51,0.84-.84,0.84,0.84-0.84.84Zm1.51-1.51,0.84-.84,0.84,0.84-0.84.84Zm1.51-1.51,0.84-.84,0.84,0.84-0.84.84Zm1.51-1.51,0.84-.84,0.84,0.84-0.84.84Zm1.51-1.51,0.84-.84,0.84,0.84-0.84.84Zm1.51-1.51,0.84-.84,0.84,0.84-0.84.84Zm1.51-1.51,0.84-.84,0.84,0.84-0.84.84Zm1.51-1.51,0.84-.84,0.84,0.84-0.84.84Zm1.51-1.51,0.84-.84,0.84,0.84-0.84.84Zm1.51-1.51,0.84-.84L178,108.8l-0.84.84Zm1.51-1.51,0.84-.84,0.84,0.84-0.84.84Zm1.51-1.51,0.84-.84,0.84,0.84-0.84.84Zm-0.67-.67-0.84-.84,0.84-.84,0.84,0.84Zm-1.51-1.51-0.84-.84,0.84-.84,0.84,0.84Zm-1.51-1.51-0.84-.84,0.84-.84,0.84,0.84Zm-1.51-1.51-0.84-.84,0.84-.84L175,99.75Zm-1.51-1.51-0.84-.84,0.84-.84,0.84,0.84Zm-1.51-1.51-0.84-.84,0.84-.84L172,96.74Zm-1.51-1.51-0.84-.84,0.84-.84,0.84,0.84Zm-1.51-1.51-0.84-.84,0.84-.84,0.84,0.84Zm-1.51-1.51-0.84-.84,0.84-.84,0.84,0.84Zm-1.51-1.51-0.84-.84,0.84-.84,0.84,0.84ZM163.57,90l-0.84-.84,0.84-.84,0.84,0.84Zm-1.51-1.51-0.84-.84,0.84-.84,0.84,0.84ZM160.56,87l-0.84-.84,0.84-.84,0.84,0.84ZM159,85.51l-0.84-.84,0.84-.84,0.84,0.84ZM157.54,84l-0.84-.84,0.84-.84,0.84,0.84ZM156,82.49l-0.79-.79,0.84-.84,0.79,0.79ZM154.52,81l-0.79-.79,0.84-.84,0.79,0.79Zm-1.46-1.46-0.84-.84,0.84-.84,0.84,0.84ZM151.56,78l-0.84-.84,0.84-.84,0.84,0.84Zm-1.51-1.51-0.84-.84,0.84-.84,0.84,0.84ZM148.54,75l-0.84-.84,0.84-.84,0.84,0.84ZM147,73.49l-0.84-.84,0.84-.84,0.84,0.84ZM145.53,72l-0.84-.84,0.84-.84,0.84,0.84ZM144,70.48l-0.84-.84L144,68.8l0.84,0.84ZM142.51,69l-0.84-.84,0.84-.84,0.84,0.84ZM141,67.46l-0.84-.84,0.84-.84,0.84,0.84ZM139.49,66l-0.84-.84,0.84-.84,0.84,0.84ZM138,64.44l-0.84-.84,0.84-.84,0.84,0.84Zm-1.51-1.51-0.84-.84,0.84-.84,0.84,0.84ZM135,61.43l-0.84-.84,0.84-.84,0.84,0.84Zm-1.51-1.51-0.84-.84,0.84-.84,0.84,0.84Zm-1.51-1.51-0.84-.84,0.84-.84,0.84,0.84Zm-1.51-1.51-0.84-.84,0.84-.84,0.84,0.84Zm-0.67.67-0.84.84-0.84-.84,0.84-.84Zm-1.51,1.51-0.84.84-0.84-.84,0.84-.84Zm-1.51,1.51-0.84.84-0.84-.84,0.84-.84Zm-1.51,1.51-0.84.84-0.84-.84,0.84-.84Zm-1.51,1.51-0.84.84-0.84-.84,0.84-.84Zm-1.51,1.51-0.84.84-0.84-.84,0.84-.84Zm-1.51,1.51-0.84.84L119,66.62l0.84-.84Zm-1.51,1.51-0.84.84-0.84-.84,0.84-.84Zm-1.51,1.51-0.84.84L116,69.64l0.84-.84Zm-1.51,1.51-0.84.84-0.84-.84,0.84-.84Zm-1.51,1.51-0.84.84L113,72.65l0.84-.84Zm-1.51,1.51-0.84.84-0.84-.84,0.84-.84Zm-1.51,1.51-0.84.84L110,75.67l0.84-.84Zm-1.51,1.51-0.84.84-0.84-.84,0.84-.84Zm-1.51,1.51-0.84.84L107,78.69l0.84-.84Zm-1.51,1.51-0.79.79-0.84-.84,0.79-.79Zm-1.51,1.51-0.79.79L104,81.66l0.79-.79Zm-1.46,1.46-0.84.84-0.84-.84,0.84-.84Zm-1.51,1.51-0.84.84L101,84.67l0.84-.84Zm-1.51,1.51-0.84.84-0.84-.84,0.84-.84Zm-1.51,1.51-0.84.84L98,87.69l0.84-.84ZM98.15,89.2L97.31,90l-0.84-.84,0.84-.84Zm-1.51,1.51-0.84.84L95,90.71l0.84-.84Zm-1.51,1.51-0.84.84-0.84-.84,0.84-.84Zm-1.51,1.51-0.84.84-0.84-.84,0.84-.84Zm-1.51,1.51-0.84.84-0.84-.84,0.84-.84Zm-1.51,1.51-0.84.84-0.84-.84,0.84-.84ZM89.1,98.25l-0.84.84-0.84-.84,0.84-.84Zm-1.51,1.51-0.84.84-0.84-.84,0.84-.84Zm-1.51,1.51-0.84.84-0.84-.84,0.84-.84Zm-1.51,1.51-0.84.84-0.84-.84,0.84-.84Zm-1.51,1.51-0.84.84-0.84-.84,0.84-.84Zm-1.51,1.51-0.84.84-0.84-.84,0.84-.84Zm0.67,0.67,0.84,0.84-0.84.84-0.84-.84ZM83.73,108l0.84,0.84-0.84.84-0.84-.84Zm1.51,1.51,0.84,0.84-0.84.84-0.84-.84ZM86.75,111l0.84,0.84-0.84.84-0.84-.84Zm1.51,1.51,0.84,0.84-0.84.84-0.84-.84ZM89.77,114l0.84,0.84-0.84.84-0.84-.84Zm1.51,1.51,0.84,0.84-0.84.84-0.84-.84ZM92.78,117l0.84,0.84-0.84.84-0.84-.84Zm1.51,1.51,0.84,0.84-0.84.84-0.84-.84ZM95.8,120l0.84,0.84-0.84.84L95,120.87Zm1.51,1.51,0.84,0.84-0.84.84-0.84-.84Zm1.51,1.51,0.84,0.84-0.84.84L98,123.89Zm1.51,1.51,0.84,0.84-0.84.84-0.84-.84Zm1.51,1.51,0.84,0.84-0.84.84L101,126.9Zm1.51,1.51,0.84,0.84-0.84.84-0.84-.84Zm1.51,1.51,0.79,0.79-0.84.84-0.79-.79Zm1.51,1.51,0.79,0.79-0.84.84-0.79-.79Zm1.46,1.46,0.84,0.84-0.84.84-0.84-.84Zm1.51,1.51,0.84,0.84-0.84.84-0.84-.84Zm1.51,1.51,0.84,0.84-0.84.84L110,135.9Zm1.51,1.51,0.84,0.84-0.84.84-0.84-.84Zm1.51,1.51,0.84,0.84-0.84.84-0.84-.84Zm1.51,1.51,0.84,0.84-0.84.84-0.84-.84Zm1.51,1.51,0.84,0.84-0.84.84-0.84-.84Zm1.51,1.51,0.84,0.84-0.84.84-0.84-.84Zm1.51,1.51,0.84,0.84-0.84.84L119,145Zm1.51,1.51,0.84,0.84-0.84.84-0.84-.84Zm1.51,1.51,0.84,0.84-0.84.84-0.84-.84Zm1.51,1.51,0.84,0.84-0.84.84-0.84-.84Zm1.51,1.51,0.84,0.84-0.84.84-0.84-.84Zm1.51,1.51,0.84,0.84-0.84.84-0.84-.84Zm1.51,1.51,0.84,0.84-0.84.84-0.84-.84Zm1.51,1.51,0.84,0.84-0.84.84-0.84-.84Zm1.51,1.51,0.84,0.84-0.84.84-0.84-.84Zm0.67-.67,0.84-.84,0.84,0.84-0.84.84Zm1.51-1.51,0.84-.84L135.8,154l-0.84.84Zm1.51-1.51,0.84-.84,0.84,0.84-0.84.84Zm1.51-1.51,0.84-.84,0.84,0.84-0.84.84Zm1.51-1.51,0.84-.84,0.84,0.84-0.84.84Zm1.51-1.51,0.84-.84,0.84,0.84-0.84.84Zm1.51-1.51,0.84-.84,0.84,0.84-0.84.84Zm1.51-1.51,0.84-.84,0.84,0.84-0.84.84Zm1.51-1.51,0.84-.84,0.84,0.84-0.84.84Zm1.51-1.51,0.84-.84,0.84,0.84-0.84.84Zm1.51-1.51,0.84-.84,0.84,0.84-0.84.84Zm1.51-1.51,0.84-.84,0.84,0.84-0.84.84Zm1.51-1.51,0.84-.84,0.84,0.84-0.84.84Zm1.51-1.51,0.84-.84,0.84,0.84-0.84.84Zm1.51-1.51,0.84-.84,0.84,0.84-0.84.84Zm1.51-1.51,0.79-.79,0.84,0.84-0.79.79Zm1.51-1.51,0.79-.79,0.84,0.84-0.79.79Zm1.46-1.46,0.84-.84,0.84,0.84-0.84.84Zm1.51-1.51,0.84-.84,0.84,0.84-0.84.84Zm1.51-1.51,0.84-.84,0.84,0.84-0.84.84Zm1.51-1.51,0.83-.84,0.84,0.84-0.84.84Zm1.51-1.51,0.84-.84,0.84,0.84-0.84.84Zm1.51-1.51,0.84-.84,0.84,0.84-0.84.84Zm1.51-1.51,0.84-.84,0.84,0.84-0.84.84Zm1.51-1.51,0.84-.84,0.84,0.84-0.84.84Zm1.51-1.51,0.84-.84,0.84,0.84-0.84.84Zm1.51-1.51,0.84-.84,0.84,0.84-0.84.84Zm1.51-1.51,0.84-.84,0.84,0.84-0.84.84Zm1.51-1.51,0.84-.84,0.84,0.84-0.84.84Zm1.51-1.51,0.84-.84,0.84,0.84-0.84.84Zm1.51-1.51,0.84-.84,0.84,0.84-0.84.84Zm1.51-1.51,0.84-.84L181,108.8l-0.84.84Zm1.51-1.51,0.84-.84,0.84,0.84-0.84.84Zm1.51-1.51,0.84-.84,0.84,0.84-0.84.84Zm-0.67-.67-0.84-.84,0.84-.84,0.84,0.84Zm-1.51-1.51-0.84-.84,0.84-.84,0.84,0.84Zm-1.51-1.51-0.84-.84,0.84-.84,0.84,0.84Zm-1.51-1.51-0.84-.84,0.84-.84L178,99.75Zm-1.51-1.51-0.84-.84,0.84-.84,0.84,0.84Zm-1.51-1.51-0.84-.84,0.84-.84L175,96.74Zm-1.51-1.51-0.84-.84,0.84-.84,0.84,0.84Zm-1.51-1.51-0.84-.84,0.84-.84L172,93.72Zm-1.51-1.51-0.84-.84,0.84-.84,0.84,0.84Zm-1.51-1.51-0.84-.84,0.84-.84,0.84,0.84ZM166.59,90l-0.84-.84,0.84-.84,0.84,0.84Zm-1.51-1.51-0.84-.84,0.84-.84,0.84,0.84ZM163.57,87l-0.83-.84,0.84-.84,0.84,0.84Zm-1.51-1.51-0.84-.84,0.84-.84,0.84,0.84ZM160.56,84l-0.84-.84,0.84-.84,0.84,0.84ZM159,82.49l-0.84-.84,0.84-.84,0.84,0.84ZM157.54,81l-0.79-.79,0.84-.84,0.79,0.79ZM156,79.48l-0.79-.79,0.84-.84,0.79,0.79ZM154.57,78l-0.84-.84,0.84-.84,0.84,0.84Zm-1.51-1.51-0.84-.84,0.84-.84,0.84,0.84ZM151.56,75l-0.84-.84,0.84-.84,0.84,0.84Zm-1.51-1.51-0.84-.84,0.84-.84,0.84,0.84ZM148.54,72l-0.84-.84,0.84-.84,0.84,0.84ZM147,70.48l-0.84-.84L147,68.8l0.84,0.84ZM145.53,69l-0.84-.84,0.84-.84,0.84,0.84ZM144,67.46l-0.84-.84,0.84-.84,0.84,0.84ZM142.51,66l-0.84-.84,0.84-.84,0.84,0.84ZM141,64.44l-0.84-.84,0.84-.84,0.84,0.84Zm-1.51-1.51-0.84-.84,0.84-.84,0.84,0.84ZM138,61.43l-0.84-.84,0.84-.84,0.84,0.84Zm-1.51-1.51-0.84-.84,0.84-.84,0.84,0.84ZM135,58.41l-0.84-.84,0.84-.84,0.84,0.84Zm-1.51-1.51-0.84-.84,0.84-.84,0.84,0.84Zm-1.51-1.51-0.84-.84,0.84-.84,0.84,0.84Zm-1.51-1.51L129.6,53l0.84-.84L131.28,53Zm-0.67.67-0.84.84-0.84-.84,0.84-.84Zm-1.51,1.51-0.84.84-0.84-.84,0.84-.84Zm-1.51,1.51-0.84.84-0.84-.84,0.84-.84Zm-1.51,1.51-0.84.84-0.84-.84,0.84-.84Zm-1.51,1.51-0.84.84-0.84-.84,0.84-.84Zm-1.51,1.51-0.84.84-0.84-.84,0.84-.84Zm-1.51,1.51-0.84.84L119,63.61l0.84-.84Zm-1.51,1.51-0.84.84-0.84-.84,0.84-.84Zm-1.51,1.51-0.84.84L116,66.62l0.84-.84Zm-1.51,1.51-0.84.84-0.84-.84,0.84-.84Zm-1.51,1.51-0.84.84L113,69.64l0.84-.84Zm-1.51,1.51-0.84.84-0.84-.84,0.84-.84Zm-1.51,1.51-0.84.84L110,72.66l0.84-.84Zm-1.51,1.51-0.84.84-0.84-.84,0.84-.84Zm-1.51,1.51-0.84.84L107,75.67l0.84-.84Zm-1.51,1.51-0.84.84-0.84-.84,0.84-.84Zm-1.51,1.51-0.79.79L104,78.64l0.79-.79Zm-1.51,1.51-0.79.79-0.84-.84,0.79-.79Zm-1.46,1.46-0.84.84L101,81.66l0.84-.84Zm-1.51,1.51-0.84.84-0.84-.84,0.84-.84Zm-1.51,1.51-0.84.84L98,84.67l0.84-.84Zm-1.51,1.51L97.31,87l-0.84-.84,0.84-.84Zm-1.51,1.51-0.84.84L95,87.69l0.84-.84ZM95.13,89.2L94.29,90l-0.84-.84,0.84-.84Zm-1.51,1.51-0.84.84-0.84-.84,0.84-.84Zm-1.51,1.51-0.84.84-0.84-.84,0.84-.84Zm-1.51,1.51-0.84.84-0.84-.84,0.84-.84ZM89.1,95.23l-0.84.84-0.84-.84,0.84-.84Zm-1.51,1.51-0.84.84-0.84-.84,0.84-.84Zm-1.51,1.51-0.84.84-0.84-.84,0.84-.84Zm-1.51,1.51-0.84.84-0.84-.84,0.84-.84Zm-1.51,1.51-0.84.84-0.84-.84,0.84-.84Zm-1.51,1.51-0.84.84-0.84-.84,0.84-.84ZM80,104.28l-0.84.84-0.84-.84,0.84-.84Zm-1.51,1.51-0.84.84-0.84-.84L77.7,105Zm0.67,0.67L80,107.3l-0.84.84-0.84-.84ZM80.72,108l0.84,0.84-0.84.84-0.84-.84Zm1.51,1.51,0.84,0.84-0.84.84-0.84-.84ZM83.73,111l0.84,0.84-0.84.84-0.84-.84Zm1.51,1.51,0.84,0.84-0.84.84-0.84-.84ZM86.75,114l0.84,0.84-0.84.84-0.84-.84Zm1.51,1.51,0.84,0.84-0.84.84-0.84-.84ZM89.77,117l0.84,0.84-0.84.84-0.84-.84Zm1.51,1.51,0.84,0.84-0.84.84-0.84-.84ZM92.78,120l0.84,0.84-0.84.84-0.84-.84Zm1.51,1.51,0.84,0.84-0.84.84-0.84-.84Zm1.51,1.51,0.84,0.84-0.84.84L95,123.89Zm1.51,1.51,0.84,0.84-0.84.84-0.84-.84Zm1.51,1.51,0.84,0.84-0.84.84L98,126.91Zm1.51,1.51,0.84,0.84-0.84.84-0.84-.84Zm1.51,1.51,0.84,0.84-0.84.84-0.84-.84Zm1.51,1.51,0.79,0.79-0.84.84-0.79-.79Zm1.51,1.51,0.79,0.79-0.84.84-0.79-.79Zm1.46,1.46,0.84,0.84-0.84.84-0.84-.84Zm1.51,1.51,0.84,0.84-0.84.84L107,135.9Zm1.51,1.51,0.84,0.84-0.84.84-0.84-.84Zm1.51,1.51,0.84,0.84-0.84.84-0.84-.84Zm1.51,1.51,0.84,0.84-0.84.84-0.84-.84Zm1.51,1.51,0.84,0.84-0.84.84-0.84-.84Zm1.51,1.51,0.84,0.84-0.84.84-0.84-.84Zm1.51,1.51L117.7,145l-0.84.84L116,145Zm1.51,1.51,0.84,0.84-0.84.84-0.84-.84Zm1.51,1.51,0.84,0.84-0.84.84L119,148Zm1.51,1.51,0.84,0.84-0.84.84-0.84-.84Zm1.51,1.51,0.84,0.84-0.84.84-0.84-.84Zm1.51,1.51,0.84,0.84-0.84.84-0.84-.84Zm1.51,1.51,0.84,0.84-0.84.84-0.84-.84Zm1.51,1.51,0.84,0.84-0.84.84-0.84-.84Zm1.51,1.51,0.84,0.84-0.84.84-0.84-.84Zm1.51,1.51,0.84,0.84-0.84.84-0.84-.84Zm1.51,1.51,0.84,0.84-0.84.84-0.84-.84Zm0.67-.67,0.84-.84,0.84,0.84-0.84.84Zm1.51-1.51,0.84-.84L135.8,157l-0.84.84Zm1.51-1.51,0.84-.84,0.84,0.84-0.84.84Zm1.51-1.51,0.84-.84,0.84,0.84-0.84.84Zm1.51-1.51,0.84-.84,0.84,0.84-0.84.84Zm1.51-1.51,0.84-.84,0.84,0.84-0.84.84Zm1.51-1.51,0.84-.84,0.84,0.84-0.84.84Zm1.51-1.51,0.84-.84,0.84,0.84-0.84.84Zm1.51-1.51,0.84-.84,0.84,0.84-0.84.84Zm1.51-1.51,0.84-.84,0.84,0.84-0.84.84Zm1.51-1.51,0.84-.84,0.84,0.84-0.84.84Zm1.51-1.51,0.84-.84,0.84,0.84-0.84.84Zm1.51-1.51,0.84-.84,0.84,0.84-0.84.84Zm1.51-1.51,0.84-.84,0.84,0.84-0.84.84Zm1.51-1.51,0.84-.84,0.84,0.84-0.84.84Zm1.51-1.51,0.84-.84,0.84,0.84-0.84.84Zm1.51-1.51,0.79-.79,0.84,0.84-0.79.79Zm1.51-1.51,0.79-.79,0.84,0.84-0.79.79Zm1.46-1.46,0.84-.84,0.84,0.84-0.84.83Zm1.51-1.51,0.84-.84,0.84,0.84-0.84.84Zm1.51-1.51,0.83-.84,0.84,0.84-0.84.84Zm1.51-1.51,0.84-.84,0.84,0.84-0.84.84Zm1.51-1.51,0.84-.84,0.84,0.84-0.84.84Zm1.51-1.51,0.84-.84,0.84,0.84-0.84.84Zm1.51-1.51,0.84-.84,0.84,0.84-0.84.84Zm1.51-1.51,0.84-.84,0.84,0.84-0.84.84Zm1.51-1.51,0.84-.84,0.84,0.84-0.84.84Zm1.51-1.51,0.84-.84,0.84,0.84-0.84.84Zm1.51-1.51,0.84-.84,0.84,0.84-0.84.84Zm1.51-1.51,0.84-.84,0.84,0.84-0.84.84Zm1.51-1.51,0.84-.84,0.84,0.84-0.84.84Zm1.51-1.51,0.84-.84,0.84,0.84-0.84.84Zm1.51-1.51,0.84-.84,0.84,0.84-0.84.84Zm1.51-1.51,0.84-.84L184,108.8l-0.84.84Zm1.51-1.51,0.84-.84,0.84,0.84-0.84.84Zm1.51-1.51,0.84-.84,0.84,0.84-0.84.84Zm-0.67-.67-0.84-.84,0.84-.84,0.84,0.84Zm-1.51-1.51-0.84-.84,0.84-.84,0.84,0.84Zm-1.51-1.51-0.84-.84,0.84-.84,0.84,0.84Zm-1.51-1.51-0.84-.84,0.84-.84L181,99.75Zm-1.51-1.51-0.84-.84,0.84-.84,0.84,0.84Zm-1.51-1.51-0.84-.84,0.84-.84L178,96.74Zm-1.51-1.51-0.84-.84,0.84-.84,0.84,0.84Zm-1.51-1.51-0.84-.84,0.84-.84L175,93.72Zm-1.51-1.51-0.84-.84,0.84-.84,0.84,0.84Zm-1.51-1.51-0.84-.84,0.84-.84L172,90.71ZM169.61,90l-0.84-.84,0.84-.84,0.84,0.84Zm-1.51-1.51-0.84-.84,0.84-.84,0.84,0.84ZM166.59,87l-0.84-.84,0.84-.84,0.84,0.84Zm-1.51-1.51-0.84-.84,0.84-.84,0.84,0.84ZM163.57,84l-0.83-.84,0.83-.84,0.84,0.84Zm-1.51-1.51-0.84-.84,0.84-.84,0.84,0.84ZM160.56,81l-0.84-.84,0.84-.84,0.84,0.84ZM159,79.48l-0.79-.79,0.84-.84,0.79,0.79ZM157.54,78l-0.79-.79,0.84-.84,0.79,0.79Zm-1.46-1.46-0.84-.84,0.84-.84,0.84,0.84ZM154.57,75l-0.84-.84,0.84-.84,0.84,0.84Zm-1.51-1.51-0.84-.84,0.84-.84,0.84,0.84ZM151.56,72l-0.84-.84,0.84-.84,0.84,0.84Zm-1.51-1.51-0.84-.84,0.84-.84,0.84,0.84ZM148.54,69l-0.84-.84,0.84-.84,0.84,0.84ZM147,67.46l-0.84-.84,0.84-.84,0.84,0.84ZM145.53,66l-0.84-.84,0.84-.84,0.84,0.84ZM144,64.44l-0.84-.84,0.84-.84,0.84,0.84Zm-1.51-1.51-0.84-.84,0.84-.84,0.84,0.84ZM141,61.43l-0.84-.84,0.84-.84,0.84,0.84Zm-1.51-1.51-0.84-.84,0.84-.84,0.84,0.84ZM138,58.41l-0.84-.84,0.84-.84,0.84,0.84Zm-1.51-1.51-0.84-.84,0.84-.84,0.84,0.84ZM135,55.39l-0.84-.84,0.84-.84,0.84,0.84Zm-1.51-1.51L132.62,53l0.84-.84L134.29,53Zm-1.51-1.51-0.84-.84,0.84-.84,0.84,0.84Zm-1.51-1.51L129.6,50l0.84-.84L131.28,50Zm-0.67.67-0.84.84-0.84-.84,0.84-.84ZM128.26,53l-0.84.84L126.59,53l0.84-.84Zm-1.51,1.51-0.84.84-0.84-.84,0.84-.84Zm-1.51,1.51-0.84.84-0.84-.84,0.84-.84Zm-1.51,1.51-0.84.84-0.84-.84,0.84-.84Zm-1.51,1.51-0.84.84-0.84-.84,0.84-.84Zm-1.51,1.51-0.84.84L119,60.59l0.84-.84Zm-1.51,1.51-0.84.84-0.84-.84,0.84-.84Zm-1.51,1.51-0.84.84L116,63.61l0.84-.84Zm-1.51,1.51-0.84.84-0.84-.84,0.84-.84Zm-1.51,1.51-0.84.84L113,66.62l0.84-.84Zm-1.51,1.51-0.84.84-0.84-.84,0.84-.84Zm-1.51,1.51-0.84.84L110,69.64l0.84-.84Zm-1.51,1.51-0.84.84-0.84-.84,0.84-.84Zm-1.51,1.51-0.84.84L107,72.65l0.84-.84Zm-1.51,1.51-0.84.84-0.84-.84,0.84-.84Zm-1.51,1.51-0.84.84L104,75.67l0.84-.84Zm-1.51,1.51-0.79.79-0.84-.84,0.79-.79Zm-1.51,1.51-0.79.79L101,78.64l0.79-.79Zm-1.46,1.46-0.84.84-0.84-.84,0.84-.84Zm-1.51,1.51-0.84.84L98,81.66l0.84-.84Zm-1.51,1.51L97.31,84l-0.84-.84,0.84-.84Zm-1.51,1.51-0.84.84L95,84.67l0.84-.84Zm-1.51,1.51L94.29,87l-0.84-.84,0.84-.84Zm-1.51,1.51-0.84.84-0.84-.84,0.84-.84ZM92.11,89.2L91.28,90l-0.84-.84,0.84-.84Zm-1.51,1.51-0.84.84-0.84-.84,0.84-.84ZM89.1,92.21l-0.84.84-0.84-.84,0.84-.84Zm-1.51,1.51-0.84.84-0.84-.84,0.84-.84Zm-1.51,1.51-0.84.84-0.84-.84,0.84-.84Zm-1.51,1.51-0.84.84-0.84-.84,0.84-.84Zm-1.51,1.51-0.84.84-0.84-.84,0.84-.84Zm-1.51,1.51-0.84.84-0.84-.84,0.84-.84ZM80,101.26l-0.84.84-0.84-.84,0.84-.84Zm-1.51,1.51-0.84.84-0.84-.84,0.84-.84ZM77,104.28l-0.84.84-0.84-.84,0.84-.84Zm-1.51,1.51-0.84.84-0.84-.84,0.84-.84Zm0.67,0.67L77,107.3l-0.84.84-0.84-.84ZM77.7,108l0.84,0.84-0.84.84-0.84-.84Zm1.51,1.51L80,110.31l-0.84.84-0.84-.84ZM80.72,111l0.84,0.84-0.84.84-0.84-.84Zm1.51,1.51,0.84,0.84-0.84.84-0.84-.84ZM83.73,114l0.84,0.84-0.84.84-0.84-.84Zm1.51,1.51,0.84,0.84-0.84.84-0.84-.84ZM86.75,117l0.84,0.84-0.84.84-0.84-.84Zm1.51,1.51,0.84,0.84-0.84.84-0.84-.84ZM89.77,120l0.84,0.84-0.84.84-0.84-.84Zm1.51,1.51,0.84,0.84-0.84.84-0.84-.84Zm1.51,1.51,0.84,0.84-0.84.84-0.84-.84Zm1.51,1.51,0.84,0.84-0.84.84-0.84-.84Zm1.51,1.51,0.84,0.84-0.84.84L95,126.9Zm1.51,1.51,0.84,0.84-0.84.84-0.84-.84Zm1.51,1.51,0.84,0.84-0.84.84L98,129.92Zm1.51,1.51,0.84,0.84-0.84.84-0.84-.83Zm1.51,1.51,0.79,0.79-0.84.84-0.79-.79Zm1.51,1.51,0.79,0.79-0.84.84-0.79-.79Zm1.46,1.46,0.84,0.84-0.84.84L104,135.9Zm1.51,1.51,0.84,0.84-0.84.84-0.84-.84Zm1.51,1.51,0.84,0.84-0.84.84-0.84-.84Zm1.51,1.51,0.84,0.84-0.84.84-0.84-.84Zm1.51,1.51,0.84,0.84-0.84.84-0.84-.84Zm1.51,1.51,0.84,0.84-0.84.84-0.84-.84Zm1.51,1.51,0.84,0.84-0.84.84L113,145Zm1.51,1.51,0.84,0.84-0.84.84-0.84-.84Zm1.51,1.51L117.7,148l-0.84.84L116,148Zm1.51,1.51,0.84,0.84-0.84.84-0.84-.84Zm1.51,1.51,0.84,0.84-0.84.84L119,151Zm1.51,1.51,0.84,0.84-0.84.84-0.84-.84Zm1.51,1.51,0.84,0.84-0.84.84-0.84-.84Zm1.51,1.51,0.84,0.84-0.84.84-0.84-.84Zm1.51,1.51,0.84,0.84-0.84.84-0.84-.84Zm1.51,1.51,0.84,0.84-0.84.84-0.84-.84Zm1.51,1.51,0.84,0.84-0.84.84L128.1,160Zm1.51,1.51,0.84,0.84-0.84.84-0.84-.84Zm1.51,1.51,0.84,0.84-0.84.84-0.84-.84Zm0.67-.67,0.84-.84,0.84,0.84-0.84.84Zm1.51-1.51,0.84-.84L135.8,160l-0.84.84Zm1.51-1.51,0.84-.84,0.84,0.84-0.84.84Zm1.51-1.51,0.84-.84,0.84,0.84-0.84.84Zm1.51-1.51,0.84-.84,0.84,0.84-0.84.84Zm1.51-1.51,0.84-.84,0.84,0.84-0.84.84Zm1.51-1.51,0.84-.84,0.84,0.84-0.84.84Zm1.51-1.51,0.84-.84,0.84,0.84-0.84.84Zm1.51-1.51,0.84-.84,0.84,0.84-0.84.84Zm1.51-1.51,0.84-.84,0.84,0.84-0.84.84Zm1.51-1.51,0.84-.84,0.84,0.84-0.84.84Zm1.51-1.51,0.84-.84,0.84,0.84-0.84.84Zm1.51-1.51,0.84-.84,0.84,0.84-0.84.84Zm1.51-1.51,0.84-.84,0.84,0.84-0.84.84Zm1.51-1.51,0.84-.84,0.84,0.84-0.84.84Zm1.51-1.51,0.84-.84,0.84,0.84-0.84.84Zm1.51-1.51,0.84-.84,0.84,0.84-0.84.84Zm1.51-1.51,0.79-.79,0.84,0.84-0.79.79Zm1.51-1.51,0.79-.79,0.84,0.84-0.79.79Zm1.46-1.46,0.84-.84,0.84,0.84-0.84.84Zm1.51-1.51,0.84-.84,0.84,0.84-0.84.84Zm1.51-1.51,0.84-.84,0.84,0.84-0.84.84Zm1.51-1.51,0.84-.84,0.84,0.84-0.84.84Zm1.51-1.51,0.84-.84,0.84,0.84-0.84.84Zm1.51-1.51,0.84-.84,0.84,0.84-0.84.84Zm1.51-1.51,0.84-.84,0.84,0.84-0.84.84Zm1.51-1.51,0.84-.84,0.84,0.84-0.84.84Zm1.51-1.51,0.84-.84,0.84,0.84-0.84.84Zm1.51-1.51,0.84-.84,0.84,0.84-0.84.84Zm1.51-1.51,0.84-.84,0.84,0.84-0.84.84Zm1.51-1.51,0.84-.84,0.84,0.84-0.84.84Zm1.51-1.51,0.84-.84,0.84,0.84-0.84.84Zm1.51-1.51,0.84-.84,0.84,0.84-0.84.84Zm1.51-1.51,0.84-.84,0.84,0.84-0.84.84Zm1.51-1.51,0.84-.84,0.84,0.84-0.84.84Zm1.51-1.51,0.84-.84L187,108.8l-0.84.84Zm1.51-1.51,0.84-.84,0.84,0.84-0.84.84Zm1.51-1.51,0.84-.84,0.84,0.84-0.84.84Zm-0.67-.67-0.84-.84,0.84-.84,0.84,0.84Zm-1.51-1.51-0.84-.84,0.84-.84,0.84,0.84Zm-1.51-1.51-0.84-.84,0.84-.84,0.84,0.84Zm-1.51-1.51-0.84-.84,0.84-.84L184,99.75Zm-1.51-1.51-0.84-.84,0.84-.84,0.84,0.84Zm-1.51-1.51-0.84-.84,0.84-.84L181,96.74Zm-1.51-1.51-0.84-.84,0.84-.84,0.84,0.84Zm-1.51-1.51-0.84-.84,0.84-.84L178,93.72Zm-1.51-1.51-0.84-.84,0.84-.84,0.84,0.84Zm-1.51-1.51-0.84-.84,0.84-.84L175,90.7ZM172.62,90l-0.84-.84,0.84-.84,0.84,0.84Zm-1.51-1.51-0.84-.84,0.84-.84L172,87.69ZM169.61,87l-0.84-.84,0.84-.84,0.84,0.84Zm-1.51-1.51-0.84-.84,0.84-.84,0.84,0.84ZM166.59,84l-0.84-.84,0.84-.84,0.84,0.84Zm-1.51-1.51-0.84-.84,0.84-.84,0.84,0.84ZM163.57,81l-0.84-.84,0.83-.84,0.84,0.84Zm-1.51-1.51-0.84-.84,0.84-.84,0.84,0.84ZM160.56,78l-0.79-.79,0.84-.84,0.79,0.79ZM159,76.46l-0.79-.79,0.84-.84,0.79,0.79ZM157.59,75l-0.84-.84,0.84-.84,0.84,0.84Zm-1.51-1.51-0.84-.84,0.84-.84,0.84,0.84ZM154.57,72l-0.84-.84,0.84-.84,0.84,0.84Zm-1.51-1.51-0.84-.84,0.84-.84,0.84,0.84ZM151.56,69l-0.84-.84,0.84-.84,0.84,0.84Zm-1.51-1.51-0.84-.84,0.84-.84,0.84,0.84ZM148.54,66l-0.84-.84,0.84-.84,0.84,0.84ZM147,64.44l-0.84-.84,0.84-.84,0.84,0.84Zm-1.51-1.51-0.84-.84,0.84-.84,0.84,0.84ZM144,61.43l-0.84-.84,0.84-.84,0.84,0.84Zm-1.51-1.51-0.84-.84,0.84-.84,0.84,0.84ZM141,58.41l-0.84-.84,0.84-.84,0.84,0.84Zm-1.51-1.51-0.84-.84,0.84-.84,0.84,0.84ZM138,55.39l-0.84-.84,0.84-.84,0.84,0.84Zm-1.51-1.51L135.64,53l0.84-.84L137.31,53ZM135,52.38l-0.84-.84L135,50.7l0.84,0.84Zm-1.51-1.51L132.62,50l0.84-.84L134.29,50Zm-1.51-1.51-0.84-.84,0.84-.84,0.84,0.84Zm-1.51-1.51L129.6,47l0.84-.84L131.28,47Zm-0.67.67-0.84.84-0.84-.84,0.84-.84ZM128.26,50l-0.84.84L126.59,50l0.84-.84Zm-1.51,1.51-0.84.84-0.84-.84,0.84-.84ZM125.25,53l-0.84.84L123.57,53l0.84-.84Zm-1.51,1.51-0.84.84-0.84-.84,0.84-.84Zm-1.51,1.51-0.84.84-0.84-.84,0.84-.84Zm-1.51,1.51-0.84.84L119,57.57l0.84-.84Zm-1.51,1.51-0.84.84-0.84-.84,0.84-.84Zm-1.51,1.51-0.84.84L116,60.59l0.84-.84ZM116.2,62.1l-0.84.84-0.84-.84,0.84-.84Zm-1.51,1.51-0.84.84L113,63.61l0.84-.84Zm-1.51,1.51-0.84.84-0.84-.84,0.84-.84Zm-1.51,1.51-0.84.84L110,66.62l0.84-.84Zm-1.51,1.51-0.84.84-0.84-.84,0.84-.84Zm-1.51,1.51-0.84.84L107,69.64l0.84-.84Zm-1.51,1.51-0.84.84-0.84-.84,0.84-.84Zm-1.51,1.51-0.84.84L104,72.65l0.84-.84Zm-1.51,1.51-0.84.84-0.84-.84,0.84-.84Zm-1.51,1.51-0.79.79L101,75.62l0.79-.79Zm-1.51,1.51-0.79.79-0.84-.84,0.79-.79Zm-1.46,1.46-0.84.84L98,78.64l0.84-.84Zm-1.51,1.51L97.31,81l-0.84-.84,0.84-.84Zm-1.51,1.51-0.84.84L95,81.66l0.84-.84Zm-1.51,1.51L94.29,84l-0.84-.84,0.84-.84Zm-1.51,1.51-0.84.84-0.84-.84,0.84-.84Zm-1.51,1.51L91.28,87l-0.84-.84,0.84-.84Zm-1.51,1.51-0.84.84-0.84-.84,0.84-.84ZM89.1,89.2L88.26,90l-0.84-.84,0.84-.84Zm-1.51,1.51-0.84.84-0.84-.84,0.84-.84Zm-1.51,1.51-0.84.84-0.84-.84,0.84-.84Zm-1.51,1.51-0.84.84-0.84-.84,0.84-.84Zm-1.51,1.51-0.84.84-0.84-.84,0.84-.84Zm-1.51,1.51-0.84.84-0.84-.84,0.84-.84ZM80,98.25l-0.84.84-0.84-.84,0.84-.84Zm-1.51,1.51-0.84.84-0.84-.84,0.84-.84ZM77,101.26l-0.84.84-0.84-.84,0.84-.84Zm-1.51,1.51-0.84.84-0.84-.84,0.84-.84ZM74,104.28l-0.84.84-0.84-.84,0.84-.84Zm-1.51,1.51-0.84.84-0.84-.84,0.84-.84Zm0.67,0.67L74,107.3l-0.84.84-0.84-.84ZM74.68,108l0.84,0.84-0.84.84-0.84-.84Zm1.51,1.51L77,110.31l-0.84.84-0.84-.84ZM77.7,111l0.84,0.84-0.84.84-0.84-.84Zm1.51,1.51L80,113.33l-0.84.84-0.84-.84ZM80.72,114l0.84,0.84-0.84.84-0.84-.84Zm1.51,1.51,0.84,0.84-0.84.84-0.84-.84ZM83.73,117l0.84,0.84-0.84.84-0.84-.84Zm1.51,1.51,0.84,0.84-0.84.84-0.84-.84ZM86.75,120l0.84,0.84-0.84.84-0.84-.84Zm1.51,1.51,0.84,0.84-0.84.84-0.84-.84Zm1.51,1.51,0.84,0.84-0.84.84-0.84-.84Zm1.51,1.51,0.84,0.84-0.84.84-0.84-.84Zm1.51,1.51,0.84,0.84-0.84.84-0.84-.84Zm1.51,1.51,0.84,0.84-0.84.84-0.84-.84Zm1.51,1.51,0.84,0.84-0.84.84L95,129.92Zm1.51,1.51,0.84,0.84-0.84.84-0.84-.84Zm1.51,1.51,0.84,0.84-0.84.84L98,132.94Zm1.51,1.51,0.79,0.79-0.84.84-0.79-.79Zm1.51,1.51,0.79,0.79-0.84.84L101,136Zm1.46,1.46,0.84,0.84-0.84.84-0.84-.84Zm1.51,1.51,0.84,0.84-0.84.84-0.84-.84Zm1.51,1.51,0.84,0.84-0.84.84-0.84-.84Zm1.51,1.51,0.84,0.84-0.84.84-0.84-.84Zm1.51,1.51,0.84,0.84-0.84.84-0.84-.84Zm1.51,1.51,0.84,0.84-0.84.84L110,145Zm1.51,1.51,0.84,0.84-0.84.84-0.84-.84Zm1.51,1.51,0.84,0.84-0.84.84L113,148Zm1.51,1.51,0.84,0.84-0.84.84-0.84-.84Zm1.51,1.51L117.7,151l-0.84.84L116,151Zm1.51,1.51,0.84,0.84-0.84.84-0.84-.84Zm1.51,1.51,0.84,0.84-0.84.84L119,154Zm1.51,1.51,0.84,0.84-0.84.84-0.84-.84Zm1.51,1.51,0.84,0.84-0.84.84-0.84-.84Zm1.51,1.51,0.84,0.84-0.84.84-0.84-.84Zm1.51,1.51,0.84,0.84-0.84.84-0.84-.84Zm1.51,1.51,0.84,0.84-0.84.84-0.84-.84Zm1.51,1.51,0.84,0.84-0.84.84-0.84-.84Zm1.51,1.51,0.84,0.84-0.84.84-0.84-.84Zm1.51,1.51,0.84,0.84-0.84.84-0.84-.84Zm0.67-.67,0.84-.84,0.84,0.84-0.84.84Zm1.51-1.51,0.84-.84,0.84,0.84-0.84.84Zm1.51-1.51,0.84-.84,0.84,0.84-0.84.84Zm1.51-1.51,0.84-.84,0.84,0.84-0.84.84Zm1.51-1.51,0.84-.84,0.84,0.84-0.84.84Zm1.51-1.51,0.84-.84,0.84,0.84-0.84.84Zm1.51-1.51,0.84-.84,0.84,0.84-0.84.84Zm1.51-1.51,0.84-.84,0.84,0.84-0.84.84Zm1.51-1.51,0.84-.84,0.84,0.84-0.84.84ZM146.2,151l0.84-.84,0.84,0.84-0.84.84Zm1.51-1.51,0.84-.84,0.84,0.84-0.84.84Zm1.51-1.51,0.84-.84,0.84,0.84-0.84.84Zm1.51-1.51,0.84-.84,0.84,0.84-0.84.84Zm1.51-1.51,0.84-.84L153.9,145l-0.84.84Zm1.51-1.51,0.84-.84,0.84,0.84-0.84.84Zm1.51-1.51,0.84-.84,0.84,0.84-0.84.84Zm1.51-1.51,0.84-.84,0.84,0.84-0.84.84Zm1.51-1.51,0.84-.84,0.84,0.84-0.84.84Zm1.51-1.51,0.79-.79,0.84,0.84-0.79.79Zm1.51-1.51,0.79-.79L162.9,136l-0.79.79Zm1.46-1.46,0.83-.84,0.84,0.84-0.84.84Zm1.51-1.51,0.84-.84,0.84,0.84-0.84.84Zm1.51-1.51,0.84-.84,0.84,0.84-0.84.83Zm1.51-1.51,0.84-.84,0.84,0.84-0.84.84Zm1.51-1.51,0.84-.84,0.84,0.84-0.84.84Zm1.51-1.51,0.84-.84,0.84,0.84-0.84.84Zm1.51-1.51,0.84-.84,0.84,0.84-0.84.84Zm1.51-1.51,0.84-.84,0.84,0.84-0.84.84Zm1.51-1.51,0.84-.84,0.84,0.84-0.84.84Zm1.51-1.51,0.84-.84,0.84,0.84-0.84.84Zm1.51-1.51,0.84-.84,0.84,0.84-0.84.84Zm1.51-1.51,0.84-.84,0.84,0.84-0.84.84Zm1.51-1.51,0.84-.84,0.84,0.84-0.84.84Zm1.51-1.51,0.84-.84,0.84,0.84-0.84.84Zm1.51-1.51,0.84-.84,0.84,0.84-0.84.84Zm1.51-1.51,0.84-.84,0.84,0.84-0.84.84Zm1.51-1.51,0.84-.84,0.84,0.84-0.84.84Zm1.51-1.51,0.84-.84,0.84,0.84-0.84.84Zm1.51-1.51,0.84-.84,0.84,0.84-0.84.84Zm1.51-1.51,0.84-.84,0.84,0.84-0.84.84Zm-0.67-.67-0.84-.84,0.84-.84,0.84,0.84Zm-1.51-1.51-0.84-.84,0.84-.84,0.84,0.84Zm-1.51-1.51-0.84-.84,0.84-.84,0.84,0.84Zm-1.51-1.51-0.84-.84,0.84-.84L187,99.75Zm-1.51-1.51-0.84-.84,0.84-.84,0.84,0.84Zm-1.51-1.51-0.84-.84,0.84-.84L184,96.74Zm-1.51-1.51-0.84-.84,0.84-.84,0.84,0.84Zm-1.51-1.51-0.84-.84,0.84-.84L181,93.72Zm-1.51-1.51-0.84-.84,0.84-.84,0.84,0.84Zm-1.51-1.51-0.84-.84,0.84-.84L178,90.7ZM175.64,90l-0.84-.84,0.84-.84,0.84,0.84Zm-1.51-1.51-0.84-.84,0.84-.84L175,87.69ZM172.62,87l-0.84-.84,0.84-.84,0.84,0.84Zm-1.51-1.51-0.84-.84,0.84-.84L172,84.67ZM169.61,84l-0.84-.84,0.84-.84,0.84,0.84Zm-1.51-1.51-0.84-.84,0.84-.84,0.84,0.84ZM166.59,81l-0.84-.84,0.84-.84,0.84,0.84Zm-1.51-1.51-0.84-.84,0.84-.84,0.84,0.84ZM163.57,78l-0.83-.84,0.83-.84,0.84,0.84Zm-1.51-1.51-0.79-.79,0.84-.84,0.79,0.79ZM160.56,75l-0.79-.79,0.84-.84,0.79,0.79Zm-1.46-1.46-0.84-.84,0.84-.84,0.84,0.84ZM157.59,72l-0.84-.84,0.84-.84,0.84,0.84Zm-1.51-1.51-0.84-.84,0.84-.84,0.84,0.84ZM154.57,69l-0.84-.84,0.84-.84,0.84,0.84Zm-1.51-1.51-0.84-.84,0.84-.84,0.84,0.84ZM151.56,66l-0.84-.84,0.84-.84,0.84,0.84Zm-1.51-1.51-0.84-.84,0.84-.84,0.84,0.84Zm-1.51-1.51-0.84-.84,0.84-.84,0.84,0.84ZM147,61.43l-0.84-.84,0.84-.84,0.84,0.84Zm-1.51-1.51-0.84-.84,0.84-.84,0.84,0.84ZM144,58.41l-0.84-.84,0.84-.84,0.84,0.84Zm-1.51-1.51-0.84-.84,0.84-.84,0.84,0.84ZM141,55.39l-0.84-.84,0.84-.84,0.84,0.84Zm-1.51-1.51L138.65,53l0.84-.84L140.33,53ZM138,52.38l-0.84-.84L138,50.7l0.84,0.84Zm-1.51-1.51L135.64,50l0.84-.84L137.31,50ZM135,49.36l-0.84-.84,0.84-.84,0.84,0.84Zm-1.51-1.51L132.62,47l0.84-.84L134.29,47Zm-1.51-1.51-0.84-.84,0.84-.84,0.84,0.84Zm-1.51-1.51L129.6,44l0.84-.84L131.28,44Zm-0.67.67-0.84.84-0.84-.84,0.84-.84ZM128.26,47l-0.84.84L126.59,47l0.84-.84Zm-1.51,1.51-0.84.84-0.84-.84,0.84-.84ZM125.25,50l-0.84.84L123.57,50l0.84-.84Zm-1.51,1.51-0.84.84-0.84-.84,0.84-.84ZM122.23,53l-0.84.84L120.55,53l0.84-.84Zm-1.51,1.51-0.84.84L119,54.56l0.84-.84Zm-1.51,1.51-0.84.84-0.84-.84,0.84-.84Zm-1.51,1.51-0.84.84L116,57.57l0.84-.84Zm-1.51,1.51-0.84.84-0.84-.84,0.84-.84Zm-1.51,1.51-0.84.84L113,60.59l0.84-.84Zm-1.51,1.51-0.84.84-0.84-.84,0.84-.84Zm-1.51,1.51-0.84.84L110,63.61l0.84-.84Zm-1.51,1.51-0.84.84-0.84-.84,0.84-.84Zm-1.51,1.51-0.84.84L107,66.62l0.84-.84Zm-1.51,1.51-0.84.84-0.84-.84,0.84-.84Zm-1.51,1.51-0.84.84L104,69.64l0.84-.84Zm-1.51,1.51-0.84.84-0.84-.84,0.84-.84Zm-1.51,1.51-0.84.84-0.84-.84,0.84-.84Zm-1.51,1.51-0.79.79-0.84-.84,0.79-.79Zm-1.51,1.51-0.79.79L98,75.62l0.79-.79Zm-1.46,1.46L97.31,78l-0.84-.84,0.84-.84Zm-1.51,1.51-0.84.84L95,78.64l0.84-.84Zm-1.51,1.51L94.29,81l-0.84-.84,0.84-.84Zm-1.51,1.51-0.84.84-0.84-.84,0.84-.84Zm-1.51,1.51L91.28,84l-0.84-.84,0.84-.84Zm-1.51,1.51-0.84.84-0.84-.84,0.84-.84ZM89.1,86.18L88.26,87l-0.84-.84,0.84-.84Zm-1.51,1.51-0.84.84-0.84-.84,0.84-.84ZM86.08,89.2L85.24,90,84.4,89.2l0.84-.84Zm-1.51,1.51-0.84.84-0.84-.84,0.84-.84Zm-1.51,1.51-0.84.84-0.84-.84,0.84-.84Zm-1.51,1.51-0.84.84-0.84-.84,0.84-.84ZM80,95.23l-0.84.84-0.84-.84,0.84-.84Zm-1.51,1.51-0.84.84-0.84-.84,0.84-.84ZM77,98.25l-0.84.84-0.84-.84,0.84-.84Zm-1.51,1.51-0.84.84-0.84-.84,0.84-.84ZM74,101.26l-0.84.84-0.84-.84,0.84-.84Zm-1.51,1.51-0.84.84-0.84-.84,0.84-.84ZM71,104.28l-0.84.84-0.84-.84,0.84-.84Zm-1.51,1.51-0.84.84-0.84-.84,0.84-.84Zm0.67,0.67L71,107.3l-0.84.84-0.84-.84ZM71.67,108l0.84,0.84-0.84.84-0.84-.84Zm1.51,1.51L74,110.31l-0.84.84-0.84-.84ZM74.68,111l0.84,0.84-0.84.84-0.84-.84Zm1.51,1.51L77,113.33l-0.84.84-0.84-.84ZM77.7,114l0.84,0.84-0.84.84-0.84-.84Zm1.51,1.51L80,116.35l-0.84.84-0.84-.84ZM80.72,117l0.84,0.84-0.84.84-0.84-.84Zm1.51,1.51,0.84,0.84-0.84.84-0.84-.84ZM83.73,120l0.84,0.84-0.84.84-0.84-.84Zm1.51,1.51,0.84,0.84-0.84.84-0.84-.84Zm1.51,1.51,0.84,0.84-0.84.84-0.84-.84Zm1.51,1.51,0.84,0.84-0.84.84-0.84-.84Zm1.51,1.51,0.84,0.84-0.84.84-0.84-.84Zm1.51,1.51,0.84,0.84-0.84.84-0.84-.84Zm1.51,1.51,0.84,0.84-0.84.84-0.84-.84Zm1.51,1.51,0.84,0.84-0.84.84-0.84-.83Zm1.51,1.51,0.84,0.84-0.84.84L95,132.94Zm1.51,1.51,0.84,0.84-0.84.84-0.84-.84Zm1.51,1.51,0.79,0.79-0.84.84L98,136Zm1.51,1.51,0.79,0.79-0.84.84-0.79-.79Zm1.46,1.46,0.84,0.84-0.84.84-0.84-.84Zm1.51,1.51,0.84,0.84-0.84.84-0.84-.84Zm1.51,1.51,0.84,0.84-0.84.84-0.84-.84Zm1.51,1.51,0.84,0.84-0.84.84-0.84-.84Zm1.51,1.51,0.84,0.84-0.84.84L107,145Zm1.51,1.51,0.84,0.84-0.84.84-0.84-.84Zm1.51,1.51,0.84,0.84-0.84.84L110,148Zm1.51,1.51,0.84,0.84-0.84.84-0.84-.84Zm1.51,1.51,0.84,0.84-0.84.84L113,151Zm1.51,1.51,0.84,0.84-0.84.84-0.84-.84Zm1.51,1.51L117.7,154l-0.84.84L116,154Zm1.51,1.51,0.84,0.84-0.84.84-0.84-.84Zm1.51,1.51,0.84,0.84-0.84.84L119,157Zm1.51,1.51,0.84,0.84-0.84.84-0.84-.84Zm1.51,1.51,0.84,0.84-0.84.84-0.84-.84Zm1.51,1.51,0.84,0.84-0.84.84-0.84-.84Zm1.51,1.51,0.84,0.84-0.84.84-0.84-.84Zm1.51,1.51,0.84,0.84-0.84.84-0.84-.84Zm1.51,1.51,0.84,0.84-0.84.84-0.84-.84Zm1.51,1.51,0.84,0.84-0.84.84-0.84-.84Zm1.51,1.51,0.84,0.84-0.84.84-0.84-.84Zm0.67-.67,0.84-.84,0.84,0.84-0.84.84Zm1.51-1.51,0.84-.84,0.84,0.84-0.84.84Zm1.51-1.51,0.84-.84,0.84,0.84-0.84.84Zm1.51-1.51,0.84-.84,0.84,0.84-0.84.84Zm1.51-1.51,0.84-.84,0.84,0.84-0.84.84Zm1.51-1.51,0.84-.84,0.84,0.84-0.84.84Zm1.51-1.51,0.84-.84,0.84,0.84-0.84.84Zm1.51-1.51,0.84-.84,0.84,0.84-0.84.84Zm1.51-1.51,0.84-.84,0.84,0.84-0.84.84Zm1.51-1.51,0.84-.84,0.84,0.84-0.84.84Zm1.51-1.51,0.84-.84,0.84,0.84-0.84.84Zm1.51-1.51,0.84-.84,0.84,0.84-0.84.84Zm1.51-1.51,0.84-.84,0.84,0.84-0.84.84Zm1.51-1.51,0.84-.84L153.9,148l-0.84.84Zm1.51-1.51,0.84-.84,0.84,0.84-0.84.84Zm1.51-1.51,0.84-.84,0.84,0.84-0.84.84Zm1.51-1.51,0.84-.84,0.84,0.84-0.84.84Zm1.51-1.51,0.84-.84,0.84,0.84-0.84.84Zm1.51-1.51,0.84-.84,0.84,0.84-0.84.84Zm1.51-1.51,0.79-.79L162.9,139l-0.79.79Zm1.51-1.51,0.79-.79,0.84,0.84-0.79.79Zm1.46-1.46,0.84-.84,0.84,0.84-0.84.83Zm1.51-1.51,0.84-.84,0.84,0.84-0.84.84Zm1.51-1.51,0.84-.84,0.84,0.84-0.84.84Zm1.51-1.51,0.84-.84,0.84,0.84-0.84.83Zm1.51-1.51,0.84-.84,0.84,0.84-0.84.84Zm1.51-1.51,0.84-.84,0.84,0.84-0.84.84Zm1.51-1.51,0.84-.84,0.84,0.84-0.84.84Zm1.51-1.51,0.84-.84,0.84,0.84-0.84.84Zm1.51-1.51,0.84-.84,0.84,0.84-0.84.84Zm1.51-1.51,0.84-.84,0.84,0.84-0.84.84Zm1.51-1.51,0.84-.84,0.84,0.84-0.84.84Zm1.51-1.51,0.84-.84,0.84,0.84-0.84.84Zm1.51-1.51,0.84-.84,0.84,0.84-0.84.84Zm1.51-1.51,0.84-.84,0.84,0.84-0.84.84Zm1.51-1.51,0.84-.84,0.84,0.84-0.84.84Zm1.51-1.51,0.84-.84,0.84,0.84-0.84.84Zm1.51-1.51,0.84-.84,0.84,0.84-0.84.84Zm1.51-1.51,0.84-.84,0.84,0.84-0.84.84Zm1.51-1.51,0.84-.84,0.84,0.84-0.84.84Zm1.51-1.51,0.84-.84,0.84,0.84-0.84.84Zm1.51-1.51,0.84-.84,0.84,0.84-0.84.84Zm-0.67-.67-0.84-.84,0.84-.84,0.84,0.84Zm-1.51-1.51-0.84-.84,0.84-.84,0.84,0.84Zm-1.51-1.51-0.84-.84,0.84-.84,0.84,0.84Zm-1.51-1.51-0.84-.84,0.84-.84,0.84,0.84Zm-1.51-1.51-0.84-.84,0.84-.84,0.84,0.84Zm-1.51-1.51-0.84-.84,0.84-.84L187,96.74Zm-1.51-1.51-0.84-.84,0.84-.84,0.84,0.84Zm-1.51-1.51-0.84-.84,0.84-.84L184,93.72Zm-1.51-1.51-0.84-.84,0.84-.84,0.84,0.84Zm-1.51-1.51-0.84-.84,0.84-.84L181,90.7ZM178.66,90l-0.84-.84,0.84-.84,0.84,0.84Zm-1.51-1.51-0.84-.84,0.84-.84L178,87.69ZM175.64,87l-0.84-.84,0.84-.84,0.84,0.84Zm-1.51-1.51-0.84-.84,0.84-.84L175,84.67ZM172.62,84l-0.84-.84,0.84-.84,0.84,0.84Zm-1.51-1.51-0.84-.84,0.84-.84L172,81.66ZM169.61,81l-0.84-.84,0.84-.84,0.84,0.84Zm-1.51-1.51-0.84-.84,0.84-.84,0.84,0.84ZM166.59,78l-0.84-.84,0.84-.84,0.84,0.84Zm-1.51-1.51-0.84-.84,0.84-.84,0.84,0.84ZM163.57,75l-0.79-.79,0.84-.84,0.79,0.79Zm-1.51-1.51-0.79-.79,0.84-.84,0.79,0.79ZM160.61,72l-0.84-.84,0.84-.84,0.84,0.84Zm-1.51-1.51-0.84-.84,0.84-.84,0.84,0.84ZM157.59,69l-0.84-.84,0.84-.84,0.84,0.84Zm-1.51-1.51-0.84-.84,0.84-.84,0.84,0.84ZM154.57,66l-0.84-.84,0.84-.84,0.84,0.84Zm-1.51-1.51-0.84-.84,0.84-.84,0.84,0.84Zm-1.51-1.51-0.84-.84,0.84-.84,0.84,0.84Zm-1.51-1.51-0.84-.84,0.84-.84,0.84,0.84Zm-1.51-1.51-0.84-.84,0.84-.84,0.84,0.84ZM147,58.41l-0.84-.84,0.84-.84,0.84,0.84Zm-1.51-1.51-0.84-.84,0.84-.84,0.84,0.84ZM144,55.39l-0.84-.84,0.84-.84,0.84,0.84Zm-1.51-1.51L141.67,53l0.84-.84L143.35,53ZM141,52.38l-0.84-.84L141,50.7l0.84,0.84Zm-1.51-1.51L138.65,50l0.84-.84L140.33,50ZM138,49.36l-0.84-.84,0.84-.84,0.84,0.84Zm-1.51-1.51L135.64,47l0.84-.84L137.31,47ZM135,46.34l-0.84-.84,0.84-.84,0.84,0.84Zm-1.51-1.51L132.62,44l0.84-.84L134.29,44Zm-1.51-1.51-0.84-.84,0.84-.84,0.84,0.84Zm-1.51-1.51L129.6,41l0.84-.84L131.28,41Zm-0.67.67-0.84.84-0.84-.84,0.84-.84ZM128.26,44l-0.84.84L126.59,44l0.84-.84Zm-1.51,1.51-0.84.84-0.84-.84,0.84-.84ZM125.25,47l-0.84.84L123.57,47l0.84-.84Zm-1.51,1.51-0.84.84-0.84-.84,0.84-.84ZM122.23,50l-0.84.84L120.55,50l0.84-.84Zm-1.51,1.51-0.84.84L119,51.54l0.84-.84ZM119.21,53l-0.84.84L117.54,53l0.84-.84Zm-1.51,1.51-0.84.84L116,54.56l0.84-.84Zm-1.51,1.51-0.84.84-0.84-.84,0.84-.84Zm-1.51,1.51-0.84.84L113,57.57l0.84-.84Zm-1.51,1.51-0.84.84-0.84-.84,0.84-.84Zm-1.51,1.51-0.84.84L110,60.59l0.84-.84Zm-1.51,1.51-0.84.84-0.84-.84,0.84-.84Zm-1.51,1.51-0.84.84L107,63.61l0.84-.84Zm-1.51,1.51-0.84.84-0.84-.84,0.84-.84Zm-1.51,1.51-0.84.84L104,66.62l0.84-.84Zm-1.51,1.51-0.84.84-0.84-.84,0.84-.84Zm-1.51,1.51-0.84.84-0.84-.84,0.84-.84Zm-1.51,1.51-0.84.84-0.84-.84,0.84-.84Zm-1.51,1.51-0.79.79L98,72.61l0.79-.79ZM98.1,74.16L97.31,75l-0.84-.84,0.79-.79Zm-1.46,1.46-0.84.84L95,75.62l0.84-.84Zm-1.51,1.51L94.29,78l-0.84-.84,0.84-.84Zm-1.51,1.51-0.84.84-0.84-.84,0.84-.84Zm-1.51,1.51L91.28,81l-0.84-.84,0.84-.84Zm-1.51,1.51-0.84.84-0.84-.84,0.84-.84ZM89.1,83.16L88.26,84l-0.84-.84,0.84-.84Zm-1.51,1.51-0.84.84-0.84-.84,0.84-.84Zm-1.51,1.51L85.24,87l-0.84-.84,0.84-.84Zm-1.51,1.51-0.84.84-0.84-.84,0.84-.84ZM83.06,89.2L82.23,90l-0.84-.84,0.84-.84Zm-1.51,1.51-0.84.84-0.84-.84,0.84-.84ZM80,92.21l-0.84.84-0.84-.84,0.84-.84Zm-1.51,1.51-0.84.84-0.84-.84,0.84-.84ZM77,95.23l-0.84.84-0.84-.84,0.84-.84Zm-1.51,1.51-0.84.84-0.84-.84,0.84-.84ZM74,98.25l-0.84.84-0.84-.84,0.84-.84Zm-1.51,1.51-0.84.84-0.84-.84,0.84-.84ZM71,101.26l-0.84.84-0.84-.84,0.84-.84Zm-1.51,1.51-0.84.84-0.84-.84,0.84-.84ZM68,104.28l-0.84.84-0.84-.84,0.84-.84Zm-1.51,1.51-0.84.84-0.84-.84,0.84-.84Zm0.67,0.67L68,107.3l-0.84.84-0.84-.84ZM68.65,108l0.84,0.84-0.84.84-0.84-.84Zm1.51,1.51L71,110.31l-0.84.84-0.84-.84ZM71.67,111l0.84,0.84-0.84.84-0.84-.84Zm1.51,1.51L74,113.33l-0.84.84-0.84-.84ZM74.68,114l0.84,0.84-0.84.84-0.84-.84Zm1.51,1.51L77,116.35l-0.84.84-0.84-.84ZM77.7,117l0.84,0.84-0.84.84-0.84-.84Zm1.51,1.51L80,119.36l-0.84.84-0.84-.84ZM80.72,120l0.84,0.84-0.84.84-0.84-.84Zm1.51,1.51,0.84,0.84-0.84.84-0.84-.84Zm1.51,1.51,0.84,0.84-0.84.84-0.84-.84Zm1.51,1.51,0.84,0.84-0.84.84-0.84-.84Zm1.51,1.51,0.84,0.84-0.84.84-0.84-.84Zm1.51,1.51,0.84,0.84-0.84.84-0.84-.84Zm1.51,1.51,0.84,0.84-0.84.84-0.84-.84Zm1.51,1.51,0.84,0.84-0.84.84-0.84-.83Zm1.51,1.51,0.84,0.84-0.84.84-0.84-.84Zm1.51,1.51,0.84,0.84-0.84.84-0.84-.84Zm1.51,1.51L96.64,136l-0.84.84L95,136Zm1.51,1.51,0.79,0.79-0.84.84-0.79-.79Zm1.51,1.51,0.79,0.79-0.84.84L98,139Zm1.46,1.46,0.84,0.84-0.84.84-0.84-.84Zm1.51,1.51,0.84,0.84-0.84.84-0.84-.84Zm1.51,1.51,0.84,0.84-0.84.84-0.84-.84Zm1.51,1.51,0.84,0.84-0.84.84L104,145Zm1.51,1.51,0.84,0.84-0.84.84-0.84-.84Zm1.51,1.51,0.84,0.84-0.84.84L107,148Zm1.51,1.51,0.84,0.84-0.84.84-0.84-.84Zm1.51,1.51,0.84,0.84-0.84.84L110,151Zm1.51,1.51,0.84,0.84-0.84.84-0.84-.84Zm1.51,1.51,0.84,0.84-0.84.84L113,154Zm1.51,1.51,0.84,0.84-0.84.84-0.84-.84Zm1.51,1.51L117.7,157l-0.84.84L116,157Zm1.51,1.51,0.84,0.84-0.84.84-0.84-.84Zm1.51,1.51,0.84,0.84-0.84.84L119,160Zm1.51,1.51,0.84,0.84-0.84.84-0.84-.84Zm1.51,1.51,0.84,0.84-0.84.84-0.84-.84Zm1.51,1.51,0.84,0.84-0.84.84-0.84-.84Zm1.51,1.51,0.84,0.84-0.84.84-0.84-.84Zm1.51,1.51,0.84,0.84-0.84.84-0.84-.84Zm1.51,1.51,0.84,0.84-0.84.84-0.84-.84Zm1.51,1.51,0.84,0.84-0.84.84-0.84-.84Z"/></g></g><polygon class="cls-17" points="144.79 87.46 132.35 103.6 120.29 87.46 144.79 87.46"/><polygon class="cls-8" points="137.39 88.38 132.35 88.38 127.31 89.01 130.78 93.32 128.91 99.35 132.35 103.6 135.79 99.35 133.92 93.32 137.39 88.38"/><polygon class="cls-23" points="130.86 88.38 127.31 94.03 120.29 87.46 130.86 87.46 130.86 88.38"/><polygon class="cls-23" points="133.84 88.38 137.38 94.03 144.4 87.46 133.84 87.46 133.84 88.38"/><rect class="cls-24" x="136.73" y="102.1" width="6.65" height="2.3"/><path class="cls-25" d="M102.64,98.2A31.27,31.27,0,0,1,88.08,94l-4.25,5s6,5.5,18.8,5.56V98.2Z"/><polygon class="cls-17" points="89.33 94.03 84.58 100.2 80.25 98.2 85.42 90.75 89.33 94.03"/><path class="cls-26" d="M106.19,57.05s-10.76,8.67-12.62-3.38,11.06-6.07,11.06-6.07Z"/><path class="cls-16" d="M169.76,54.13c2.21-35.37-34.23-30.66-43.85-29S96.22,23.77,99.27,38.32c1.76,8.38,1,18.52,1,27.11h0C100.37,85.38,120,89.75,120,89.75h0a50.46,50.46,0,0,0,13.72,1.2c8.75-.7,19.88-6.25,25.64-11.19,5.49-4.71,10.55-24.26,10.55-24.26Z"/><path class="cls-26" d="M166.77,53.75s-2.46,15.75-8.93,22.77-14.46,11.15-25.77,12.05c-9.51.76-18.06-2.19-23.46-4.73A29.5,29.5,0,0,0,120,89.75h0a50.46,50.46,0,0,0,13.72,1.2c8.75-.7,19.88-6.25,25.64-11.19,5.49-4.71,10.55-24.26,10.55-24.26Z"/><circle class="cls-27" cx="152.01" cy="62.76" r="4.5"/><path class="cls-8" d="M133.19,39.6s2.72-4.18,7.32-3.35a7.57,7.57,0,0,1,5.86,4.6,13.3,13.3,0,0,0-6.06-2.46A13.85,13.85,0,0,0,133.19,39.6Z"/><circle class="cls-28" cx="105.59" cy="61.5" r="4.5"/><path class="cls-8" d="M105.73,40.49a7.56,7.56,0,0,1,6.09-4.28C116.46,35.63,119,40,119,40a12.48,12.48,0,0,0-7.08-1.74A9.88,9.88,0,0,0,105.73,40.49Z"/><circle class="cls-29" cx="109.37" cy="52.15" r="3.35"/><circle class="cls-30" cx="120.52" cy="64.22" r="1.21"/><path class="cls-26" d="M153.49,27.7a236.57,236.57,0,0,1-24.81,5.87,28.22,28.22,0,0,1-5.13,2c9.1,0.24,27.33-5,27.33-5s2.88,17.71,18.91,24C155.1,47.9,153.49,27.7,153.49,27.7Z"/><circle class="cls-31" cx="108.87" cy="51.88" r="1.86"/><path class="cls-26" d="M116.47,65.47s5.06,2.85,7.41,3.14C123.88,68.61,116.88,71.34,116.47,65.47Z"/><path class="cls-26" d="M151.87,50.52s-3.27-4.88-13-4.88-11.79,2.56-11.79,2.56h-7.4s-7.6-2.59-12.2-2.59A36,36,0,0,0,98.31,47L98.2,44.68l10-1.73,15.56,2.82L140.39,43,149,45l2.9,5v0.5Z"/><path class="cls-32" d="M154,44.07a49.27,49.27,0,0,0-15.11-2.72c-7.79,0-12.58,2.72-16.14,2.72s-8.35-2.72-16.14-2.72a49.24,49.24,0,0,0-15.11,2.72c-1.29.38-1.15,3-.34,4a6.78,6.78,0,0,1,1.09,2c0.75,6,3.85,15.48,14.87,15.57s13.18-11.73,13.65-14.07,2-2.16,2-2.16,1.5-.19,2,2.16,2.63,14.17,13.65,14.07,14.12-9.57,14.88-15.57a6.81,6.81,0,0,1,1.09-2C155.18,47.09,155.32,44.45,154,44.07ZM106.68,63.21c-8.76.6-11.48-8-10.92-13.6s11.35-5.16,11.35-5.16,9-.59,10.05,4.95S115.44,62.61,106.68,63.21Zm32.21,0c-8.77-.6-11.52-8.28-10.49-13.81s10.05-4.95,10.05-4.95,10.79-.47,11.36,5.16S147.65,63.81,138.88,63.21Z"/><circle class="cls-23" cx="93.69" cy="46.42" r="1.41"/><circle class="cls-23" cx="151.87" cy="46.42" r="1.41"/><circle class="cls-29" cx="134.57" cy="52.77" r="3.35"/><circle class="cls-31" cx="134.28" cy="52.38" r="1.86"/><path class="cls-8" d="M166.53,13.75S160.35,3.23,140.3.43s-38,8.56-42,22,1.52,19,1.52,19l2.81-11.56C114.08,33.79,128,31,128,31a43.41,43.41,0,0,1-5.6,3.29l1-.07c11-.88,30-6.52,30-6.52s1.61,20.21,16.3,26.86C169.79,54.56,185.53,27,166.53,13.75Z"/><path class="cls-29" d="M166.53,13.75s-22,6.63-39.79,8.05-28.43.63-28.43,0.63c-4,13.45,1.52,19,1.52,19l2.81-11.56C114.08,33.79,128,31,128,31a43.41,43.41,0,0,1-5.6,3.29l1-.07c11-.88,30-6.52,30-6.52s1.64,20.52,16.33,27.17C169.82,54.87,185.53,27,166.53,13.75Z"/><path class="cls-26" d="M102.64,29.88C114.08,33.79,128,31,128,31a20.67,20.67,0,0,1-2.9,1.86S110.47,34.57,102.64,29.88Z"/><path class="cls-26" d="M114.92,75s10.26,2.88,15.93.5C130.86,75.53,121.79,82.53,114.92,75Z"/><path class="cls-16" d="M163.79,62.24s11.06,8.29,12.49-3.82S165,52.74,165,52.74Z"/></svg>