<svg id="Layer_1" data-name="Layer 1" xmlns="http://www.w3.org/2000/svg" xmlns:xlink="http://www.w3.org/1999/xlink" viewBox="0 0 494.44 452.13"><defs><style>.cls-1{fill:#5f5f5f}.cls-2{fill:url(#linear-gradient)}.cls-3{fill:url(#linear-gradient-2)}.cls-4{fill:url(#linear-gradient-3)}.cls-5{fill:#8a8a8a}.cls-6{fill:#f1f1f1}.cls-13,.cls-7{fill:#5a5a5a}.cls-8{fill:#9b9b9b}.cls-9{fill:#999}.cls-10{fill:#bebebe}.cls-11{fill:#b1b1b1}.cls-12{fill:#e2e2e2}.cls-13{opacity:.15;isolation:isolate}.cls-14{fill:#f7f7f7}.cls-15{fill:#e4e4e4}.cls-16{fill:#e9e9e9}.cls-17{fill:url(#linear-gradient-4)}.cls-18{fill:gray}.cls-19{fill:#fff}.cls-20{fill:#767676}.cls-21{fill:url(#linear-gradient-5)}.cls-22{fill:#cecece}.cls-23{fill:url(#radial-gradient)}.cls-24{fill:#535353}.cls-25{fill:#eee}.cls-26{fill:#606060}.cls-27{fill:#4b4b4b}</style><linearGradient id="linear-gradient" x1="150.27" y1="4.06" x2="150.27" y2="189.01" gradientTransform="matrix(1 0 0 -1 0 452.82)" gradientUnits="userSpaceOnUse"><stop offset="0" stop-color="#919191"/><stop offset=".25" stop-color="#8d8d8d"/><stop offset=".53" stop-color="#838383"/><stop offset=".81" stop-color="#727272"/><stop offset="1" stop-color="#646464"/></linearGradient><linearGradient id="linear-gradient-2" x1="104.21" y1="4.07" x2="104.21" y2="192.09" gradientTransform="matrix(.62 .78 .78 -.62 -37.41 334.08)" xlink:href="#linear-gradient"/><linearGradient id="linear-gradient-3" x1="196.95" y1="4.02" x2="196.95" y2="192.07" gradientTransform="matrix(.78 .62 .62 -.78 -18.29 309.21)" xlink:href="#linear-gradient"/><linearGradient id="linear-gradient-4" x1="426.83" y1="133.24" x2="407.18" y2="119.76" gradientTransform="matrix(1 0 0 -1 0 452.82)" gradientUnits="userSpaceOnUse"><stop offset="0" stop-color="#efefef" stop-opacity="0"/><stop offset="1" stop-color="#c2c2c2"/></linearGradient><linearGradient id="linear-gradient-5" x1="280.32" y1="165.94" x2="240.16" y2="186.97" xlink:href="#linear-gradient-4"/><radialGradient id="radial-gradient" cx="-912.31" cy="82.9" r="20.1" gradientTransform="matrix(-.63 0 0 -.63 -278.58 225.84)" gradientUnits="userSpaceOnUse"><stop offset="0" stop-color="#d2d2d2"/><stop offset=".09" stop-color="#d2d2d2" stop-opacity=".97"/><stop offset=".22" stop-color="#d4d4d4" stop-opacity=".9"/><stop offset=".37" stop-color="#d6d6d6" stop-opacity=".77"/><stop offset=".54" stop-color="#d9d9d9" stop-opacity=".6"/><stop offset=".73" stop-color="#ddd" stop-opacity=".38"/><stop offset=".92" stop-color="#e2e2e2" stop-opacity=".12"/><stop offset="1" stop-color="#e5e5e5" stop-opacity="0"/></radialGradient></defs><title>mascot-01-gray</title><path class="cls-1" d="M200.67 313.94a92.72 92.72 0 0 1-4.82-13.68l16.65-20.77zm24.47 31.17a83.28 83.28 0 0 1-10.2-9.36l11.83-29z"/><path class="cls-2" d="M146.4 263.82h7.74v184.95h-7.74z"/><path class="cls-3" transform="rotate(-51.57 104.194 354.739)" d="M-12.75 350.88h233.89v7.74H-12.75z"/><path class="cls-4" transform="rotate(-38.42 196.937 354.786)" d="M193.08 237.84h7.74v233.89h-7.74z"/><path class="cls-5" d="M282.88 359.76H0V124.67h300.01v235.09h-17.13z"/><path class="cls-6" d="M271.17 135H28.84a15.64 15.64 0 0 0-15.61 15.61v183.1a15.64 15.64 0 0 0 15.61 15.61h242.33a15.64 15.64 0 0 0 15.61-15.61V150.69A15.64 15.64 0 0 0 271.17 135z"/><path class="cls-7" d="M17.43 441.11h28.79v11.02H17.43zm118.43 0h28.79v11.02h-28.79zm116.92-.03h28.79v11.02h-28.79z"/><path class="cls-8" d="M38.07 322.23h80.45v5.94H38.07z"/><path class="cls-9" d="M38.07 269.82h23.71v46.47H38.07z"/><path class="cls-10" d="M66.24 229.17h23.71v87.12H66.24z"/><path class="cls-11" d="M94.77 246.61h23.74v69.68H94.77z"/><path class="cls-8" d="M141.11 223.23h5.94v104.92h-5.94z"/><path class="cls-12" d="M163.87 223.23h2.27v101.95h-2.27zm19.28 0h2.27v101.95h-2.27zm19.26 0h2.27v101.95h-2.27zm19.28 0h2.27v101.95h-2.27zm19.29 0h2.27v101.95h-2.27zm19.28 0h2.27v101.95h-2.27z"/><path class="cls-8" d="M141.11 322.23h126.42v5.94H141.11z"/><path class="cls-12" d="M147.05 230.71h115.49v2.27H147.05zm0 19.26h115.49v2.27H147.05zm0 19.28h115.49v2.27H147.05zm0 19.29h115.49v2.27H147.05zm0 19.26h115.49v2.27H147.05z"/><path class="cls-9" d="M263.32 233.77l-3.87-3.87-51.91 76.69-20.49-20.4v-.03l-3.84-3.84h-.06l-3.84 3.84v.03l-30.02 30.07 3.84 3.87 30.05-30.11 24.53 24.42.02-.03 55.59-80.64z"/><path class="cls-9" d="M263.94 241.28l-12.37-8.3 14.72-8.38-2.35 16.68z"/><path class="cls-8" d="M48.91 174.23a13.74 13.74 0 0 0 6.45 1.54c2 0 3.87-.39 3.87-2.3 0-4.37-11.21-1.63-11.21-10.15 0-5.61 5.61-7.2 10.23-7.2a19.85 19.85 0 0 1 6.22.84l-.39 4.85a12.59 12.59 0 0 0-5.21-1c-1.57 0-4.2 0-4.2 2.19 0 3.78 11.21 1.23 11.21 9.73 0 6.08-5.1 7.74-10.32 7.74a24.61 24.61 0 0 1-7.18-1zm27.02-13.06h-5.85v-4.63H87.9v4.63h-5.69V180h-6.28v-18.83zm21.7-4.63h7.65l9.06 23.46h-6.84l-1.74-5h-8.83l-1.85 5h-6.34zm3.84 4.85l-3.08 9.17h5.89zm19.62-.22h-5.77v-4.63h17.83v4.63h-5.8V180h-6.25v-18.83zm17.49-4.63h6.25V180h-6.25v-23.46zm13.51 17.69a13.74 13.74 0 0 0 6.45 1.54c2 0 3.87-.39 3.87-2.3 0-4.37-11.21-1.63-11.21-10.15 0-5.61 5.61-7.2 10.23-7.2a19.85 19.85 0 0 1 6.05.87l-.39 4.85a12.59 12.59 0 0 0-5.21-1.07c-1.57 0-4.2 0-4.2 2.19 0 3.78 11.21 1.23 11.21 9.73 0 6.08-5.1 7.74-10.32 7.74a24.61 24.61 0 0 1-7-1zm27.05-13.06h-5.77v-4.63h17.8v4.63h-5.77V180h-6.25v-18.83zm17.49-4.63h6.25V180h-6.25v-23.46zm33.02 22.85a26 26 0 0 1-7 1c-6.25 0-13.48-3.17-13.48-12 0-8.16 5.61-12.25 13.45-12.25a24.39 24.39 0 0 1 7 1.21l-.5 5.07a12.31 12.31 0 0 0-6.11-1.65 7.51 7.51 0 1 0 .5 15 16.51 16.51 0 0 0 5.86-1.21zm5.47-5.16a13.73 13.73 0 0 0 6.45 1.54c2 0 3.87-.39 3.87-2.3 0-4.37-11.21-1.63-11.21-10.15 0-5.61 5.61-7.2 10.23-7.2a19.85 19.85 0 0 1 6.05.87l-.39 4.85a12.59 12.59 0 0 0-5.21-1.07c-1.57 0-4.2 0-4.2 2.19 0 3.78 11.21 1.23 11.21 9.73 0 6.08-5.1 7.74-10.32 7.74a24.61 24.61 0 0 1-7-1z"/><path class="cls-13" d="M299.93 301s-38.18 7.54-63.63-11.55l-1.4 1-14-6.25.84-3.28a6.87 6.87 0 0 1-5.86 0 7 7 0 0 1-9.42 3.09l-.11-.06c-6.81-2.8 1.15-10.4 1.15-10.4l3.39-5.89-4.57 4.88s-10.09 2.8-10.09-4.85 11.8-6.92 11.8-6.92-12.11-1.26-11.07-7.68 17.72 0 17.72 0l10.29-2s-.48-3.64 2-4.23 11.21 9.81 11.21 9.81l13.43 17.52 48.35 7.54V301zm0-51s-34.59-3.06-37.28-52.73c0 0-19.31-3.06-21.36-28.87a10.37 10.37 0 0 1-6.29-7.2c-1-5.3 19.62-10.51 33.64-11.21s31.28 21 31.28 21v79z"/><path class="cls-14" d="M261.78 190.6a15.64 15.64 0 0 1-7.88-4.2h7.48z"/><path class="cls-15" d="M238.62 257.06s1.46-17.91-5.61-17.83-4.32 10.68-4.32 10.68-19.62-16.59-24.92-10.46 10.4 10.43 10.4 10.43-15.17-3.69-15.17 5.19 13.45 6.19 13.45 6.19-12.47 6.5-7.37 12 14.18-2.19 14.18-2.19a8.41 8.41 0 0 0 6.9 1.91z"/><path class="cls-16" d="M340.4 272.09s-16.82 21.28-52.7 21.11-52.7-15.7-52.7-15.7l11.91-14a87.65 87.65 0 0 0 40.78 11.69c21.81 0 52.7-25.79 52.7-25.79V272z"/><path class="cls-7" d="M359.13 367.75l3.92 84.37h-52.14s19.43-13.23 35.09-18L340.26 350h64l-5.75 84.09c15.7 4.79 35.09 18 35.09 18h-52.05l3.92-84.37h-26.34z"/><path class="cls-16" d="M404.68 268.78s14.18-.5 19.2 19.12c5.61 22.42-14.44 32.77-14.44 32.77V344s41.74-14.88 31.59-58.86C431.67 245 400.58 245 400.58 245z"/><path class="cls-17" d="M432.29 327.45A58.42 58.42 0 0 1 409.44 344v-23.34a32.68 32.68 0 0 0 11.72-11.35z"/><path class="cls-18" d="M411.85 344l-6-98.81-34.34 2.58-34.34-2.58-6 98.81s-1.18 7.09 9.08 7.68h62.48c10.27-.68 9.12-7.68 9.12-7.68z"/><path class="cls-16" d="M405.85 245.15l-34.87 45.24-33.8-45.24h68.67z"/><path class="cls-7" d="M385.11 247.73h-14.13l-14.12 1.76 9.72 12.08-5.24 16.91 9.64 11.91 9.65-11.91-5.25-16.91 9.73-13.84z"/><path class="cls-19" d="M366.81 247.73l-9.95 15.83-19.68-18.41h29.63v2.58zm8.35 0l9.92 15.83 19.68-18.41h-29.6v2.58z"/><path class="cls-20" d="M383.26 286.19h18.64v6.45h-18.64z"/><path class="cls-21" d="M287.71 275.25a87.65 87.65 0 0 1-40.81-11.77L235 277.5s16.82 15.42 52.7 15.58v-17.83z"/><path class="cls-16" d="M250.4 263.56l-13.32 17.3-12.14-5.61 14.5-20.88 10.96 9.19z"/><path class="cls-22" d="M297.66 159.91s-30.16 24.3-35.37-9.47 31-17 31-17z"/><path class="cls-15" d="M475.85 151.72C482 52.58 379.9 65.78 352.93 70.43s-83.22-3.81-74.67 37c4.93 23.49 2.8 51.91 2.8 76 .28 55.92 55.3 68.17 55.3 68.17a141.44 141.44 0 0 0 38.46 3.36c24.53-2 55.72-17.52 71.87-31.37 15.39-13.2 29.57-68 29.57-68z"/><path class="cls-22" d="M467.46 150.66s-6.9 44.15-25 63.83-40.53 31.25-72.23 33.78c-26.66 2.13-50.62-6.14-65.76-13.26a82.69 82.69 0 0 0 31.93 16.57 141.44 141.44 0 0 0 38.46 3.36c24.53-2 55.72-17.52 71.87-31.37 15.39-13.2 29.57-68 29.57-68z"/><path class="cls-7" d="M373.34 111s7.62-11.72 20.52-9.39a21.22 21.22 0 0 1 16.43 12.89 37.28 37.28 0 0 0-17-6.9 38.82 38.82 0 0 0-19.95 3.4z"/><circle class="cls-23" cx="295.97" cy="172.38" r="12.61"/><path class="cls-7" d="M296.37 113.49a21.19 21.19 0 0 1 17.07-12c13-1.63 20.13 10.62 20.13 10.62a35 35 0 0 0-19.85-4.88 27.69 27.69 0 0 0-17.35 6.26z"/><circle class="cls-24" cx="306.57" cy="146.17" r="9.39"/><circle class="cls-25" cx="337.82" cy="180.01" r="3.39"/><path class="cls-22" d="M430.24 77.64a663.12 663.12 0 0 1-69.54 16.45 79.1 79.1 0 0 1-14.38 5.61c25.51.67 76.61-14 76.61-14s8.07 49.64 53 67.27c-41.18-18.71-45.69-75.33-45.69-75.33z"/><circle class="cls-26" cx="305.17" cy="145.42" r="5.21"/><path class="cls-7" d="M326.47 183.51s14.18 8 20.77 8.8c0 0-19.62 7.69-20.77-8.8z"/><path class="cls-22" d="M425.7 141.6s-9.17-13.68-36.44-13.68-33 7.18-33 7.18h-20.79s-21.3-7.26-34.2-7.26a100.91 100.91 0 0 0-25.7 3.9l-.31-6.5 28-4.85 43.62 7.9 46.61-7.76 24.13 5.61 8.13 14v1.4z"/><path class="cls-27" d="M431.67 123.52a138.11 138.11 0 0 0-42.35-7.62c-21.84 0-35.26 7.62-45.24 7.62s-23.41-7.62-45.24-7.62a138 138 0 0 0-42.35 7.62c-3.62 1.07-3.22 8.41-1 11.21a19 19 0 0 1 3.06 5.61c2.1 16.82 10.79 43.39 41.68 43.64s36.94-32.88 38.26-39.44 5.61-6.05 5.61-6.05 4.2-.53 5.61 6.05 7.4 39.73 38.29 39.46 39.58-26.83 41.71-43.64a19.09 19.09 0 0 1 3.06-5.61c2.23-2.75 2.6-10.16-1.1-11.23zM299 177.17c-24.55 1.68-32.18-22.42-30.61-38.12s31.81-14.46 31.81-14.46 25.23-1.65 28.17 13.88-4.79 37.02-29.37 38.7zm90.29 0c-24.58-1.68-32.29-23.21-29.4-38.71s28.17-13.88 28.17-13.88 30.24-1.32 31.84 14.46-6.05 39.8-30.64 38.12z"/><circle class="cls-19" cx="262.62" cy="130.11" r="3.95"/><circle class="cls-19" cx="425.7" cy="130.11" r="3.95"/><circle class="cls-24" cx="377.21" cy="147.91" r="9.39"/><circle class="cls-26" cx="376.39" cy="146.82" r="5.21"/><path class="cls-7" d="M466.79 38.54S449.47 9 393.27 1.2s-106.52 24-117.73 61.67 4.26 53.26 4.26 53.26l7.88-32.4c32.09 11 71.11 3.17 71.11 3.17a121.68 121.68 0 0 1-15.7 9.22l2.8-.2C376.73 93.45 430 77.64 430 77.64s4.51 56.65 45.69 75.29c.24 0 44.36-77.25-8.9-114.39z"/><path class="cls-24" d="M466.79 38.54S405.12 57.12 355.26 61.1s-79.69 1.77-79.69 1.77c-11.21 37.7 4.26 53.26 4.26 53.26l7.88-32.4c32.07 11 71.09 3.17 71.09 3.17a121.68 121.68 0 0 1-15.7 9.22l2.8-.2c30.83-2.47 84.1-18.28 84.1-18.28s4.6 57.52 45.77 76.16c.23 0 44.28-78.12-8.98-115.26z"/><path class="cls-22" d="M287.71 83.75c32.07 11 71.09 3.14 71.09 3.14a57.94 57.94 0 0 1-8.13 5.21s-41.02 4.8-62.96-8.35z"/><path class="cls-7" d="M322.13 210.22s28.76 8.07 44.65 1.4c.03.09-25.4 19.71-44.65-1.4z"/><path class="cls-15" d="M459.11 174.46s31 23.24 35-10.71-31.62-15.92-31.62-15.92z"/></svg>